#N canvas 339 91 736 576 10;
#X obj 60 472 dac~, f 7;
#N canvas 339 42 1065 691 bela 0;
#X obj 125 389 loadbang;
#X msg 44 451 out 19;
#X obj 44 475 s bela_setDigital;
#X obj 249 237 tgl 19 0 empty empty empty 0 -10 0 12 #fcfcfc #000000 #000000 0 1;
#X msg 103 450 in 12;
#X obj 297 88 r bela_digitalIn12;
#X obj 296 126 bela_debounce;
#X obj 249 270 s 1-playdestroy_rcv;
#X obj 119 270 s bela_digitalOut19;
#X msg 123 209 1;
#X obj 124 181 loadbang;
#X obj 286 156 change;
#X text 19 18 stuff for making it run on a Bela board. unnecessary if you aren't using a Bela.;
#X text 146 318 this is for the personal boxes;
#X obj 18 202 r LEDflutter;
#N canvas 68 415 450 300 LED 0;
#X obj 97 97 t b b b;
#X obj 149 125 delay 50;
#X obj 117 148 delay 150;
#X obj 97 169 delay 175;
#X obj 51 234 s bela_digitalOut19;
#X msg 88 56 0;
#X msg 188 151 1;
#X msg 173 175 0;
#X msg 75 191 1;
#X obj 91 23 inlet;
#X connect 0 0 3 0;
#X connect 0 1 2 0;
#X connect 0 2 1 0;
#X connect 1 0 6 0;
#X connect 2 0 7 0;
#X connect 3 0 8 0;
#X connect 5 0 4 0;
#X connect 6 0 4 0;
#X connect 7 0 4 0;
#X connect 8 0 4 0;
#X connect 9 0 5 0;
#X connect 9 0 0 0;
#X restore 33 306 pd LED;
#X obj 739 226 tgl 19 0 empty empty empty 0 -10 0 12 #fcfcfc #000000 #000000 0 1;
#X obj 760 66 r bela_digitalIn12;
#X obj 756 168 bela_debounce;
#X obj 746 198 change;
#X obj 696 268 sel 0 1;
#X obj 745 314 s 1-record_sound_rcv;
#X msg 721 350 0;
#X msg 690 349 1;
#X obj 706 419 s 1-playdestroy_rcv;
#X obj 822 358 sel 1 0, f 14;
#X msg 822 465 bang;
#X obj 872 465 timer;
#X floatatom 872 488 7 0 0 0 - - - 0;
#X msg 872 423 tempo 1 samp;
#X obj 872 401 loadbang;
#X obj 822 405 t b b;
#X obj 676 537 < 7000;
#X obj 676 561 sel 1;
#X obj 675 595 s shortPress;
#X obj 895 254 bng 16 250 50 0 empty empty empty 0 -8 0 10 #fcfcfc #000000 #000000;
#X obj 908 292 s 1-reset_table_rcv;
#X text 18 2 this is for the one button one mic device;
#X obj 541 421 s bela_digitalOut19;
#X obj 501 298 r 1-glitchbang;
#X msg 560 349 0;
#X obj 493 360 delay 100;
#X msg 493 381 1;
#X obj 18 245 spigot;
#X obj 186 54 r device;
#X obj 186 75 sel 0 1 2, f 15;
#X msg 167 125 1;
#X obj 121 241 spigot;
#X msg 199 126 0;
#X obj 274 194 spigot;
#X obj 580 110 r device;
#X obj 580 131 sel 0 1 2, f 15;
#X msg 561 181 1;
#X msg 593 182 0;
#X obj 762 120 spigot;
#X msg 145 453 in 13;
#X msg 190 454 in 14;
#X msg 235 453 in 15;
#X msg 276 451 in 16;
#X msg 40 420 out 20;
#X msg 202 409 in 11;
#X connect 0 0 1 0;
#X connect 0 0 4 0;
#X connect 0 0 55 0;
#X connect 0 0 56 0;
#X connect 0 0 57 0;
#X connect 0 0 58 0;
#X connect 0 0 59 0;
#X connect 0 0 60 0;
#X connect 1 0 2 0;
#X connect 3 0 7 0;
#X connect 4 0 2 0;
#X connect 5 0 6 0;
#X connect 6 0 11 0;
#X connect 9 0 47 0;
#X connect 10 0 9 0;
#X connect 11 0 49 0;
#X connect 14 0 43 0;
#X connect 16 0 20 0;
#X connect 16 0 21 0;
#X connect 16 0 25 0;
#X connect 17 0 54 0;
#X connect 18 0 19 0;
#X connect 19 0 16 0;
#X connect 20 0 23 0;
#X connect 20 1 22 0;
#X connect 20 1 35 0;
#X connect 22 0 24 0;
#X connect 22 0 38 0;
#X connect 23 0 24 0;
#X connect 23 0 38 0;
#X connect 25 0 31 0;
#X connect 25 1 27 1;
#X connect 26 0 27 0;
#X connect 27 0 28 0;
#X connect 28 0 32 0;
#X connect 29 0 27 0;
#X connect 30 0 29 0;
#X connect 31 0 26 0;
#X connect 32 0 33 0;
#X connect 33 0 34 0;
#X connect 33 0 22 0;
#X connect 35 0 36 0;
#X connect 39 0 40 0;
#X connect 39 0 41 0;
#X connect 40 0 38 0;
#X connect 41 0 42 0;
#X connect 42 0 38 0;
#X connect 43 0 15 0;
#X connect 44 0 45 0;
#X connect 45 0 46 0;
#X connect 45 1 48 0;
#X connect 45 2 48 0;
#X connect 46 0 43 1;
#X connect 46 0 47 1;
#X connect 46 0 49 1;
#X connect 47 0 8 0;
#X connect 48 0 43 1;
#X connect 48 0 47 1;
#X connect 48 0 49 1;
#X connect 49 0 3 0;
#X connect 50 0 51 0;
#X connect 51 0 53 0;
#X connect 51 1 52 0;
#X connect 51 2 53 0;
#X connect 52 0 54 1;
#X connect 53 0 54 1;
#X connect 54 0 18 0;
#X connect 55 0 2 0;
#X connect 56 0 2 0;
#X connect 57 0 2 0;
#X connect 58 0 2 0;
#X connect 59 0 2 0;
#X connect 60 0 2 0;
#X restore 119 469 pd bela;
#X obj 386 464 vradio 16 1 1 4 device device_rcv which\ device 0 -8 0 10 #fcfcfc #000000 #000000 1;
#X text 407 463 memory box;
#X text 406 480 one button;
#X text 405 496 destroyer instrument;
#N canvas 484 29 775 571 presets 0;
#X obj 44 193 bng 16 250 50 0 empty empty empty 0 -8 0 10 #fcfcfc #000000 #000000;
#X obj 47 82 r device;
#X obj 47 103 sel 0 1 2, f 61;
#X obj 264 192 bng 16 250 50 0 empty empty empty 0 -8 0 10 #fcfcfc #000000 #000000;
#X obj 477 195 bng 16 250 50 0 empty empty empty 0 -8 0 10 #fcfcfc #000000 #000000;
#X msg 478 222 \; 1-glitch_on_rcv 0 \; 1-overwrite_on_rcv 0 \; 1-saving_on_rcv 0 \; 1-glitch_length_range_rcv 0.05 \; 1-glitch_height_range_rcv 0.8 \; 1-glitch-rate_rcv 0.01 \; 1-reset_table_rcv bang \;;
#X msg 45 220 \; 1-glitch_on_rcv 1 \; 1-overwrite_on_rcv 1 \; 1-saving_on_rcv 1 \; 1-glitch_length_range_rcv 0.05 \; 1-glitch_height_range_rcv 0.8 \; 1-glitch-rate_rcv 0.01 \; 1-reset_table_rcv bang \; 1-rate_rcv 1 \; 1-rev_rcv 0 \;;
#X msg 265 219 \; 1-glitch_on_rcv 1 \; 1-overwrite_on_rcv 1 \; 1-saving_on_rcv 1 \; 1-glitch_length_range_rcv 0.05 \; 1-glitch_height_range_rcv 0.8 \; 1-glitch-rate_rcv 0.01 \; 1-reset_table_rcv bang \; 1-rate_rcv 1 \; 1-rev_rcv 0 \;;
#X connect 0 0 6 0;
#X connect 1 0 2 0;
#X connect 2 0 0 0;
#X connect 2 1 3 0;
#X connect 2 2 4 0;
#X connect 3 0 7 0;
#X connect 4 0 5 0;
#X restore 308 467 pd presets;
#N canvas 361 29 1043 613 destroyer_midi 0;
#X text 26 119 length;
#X text 232 270 height;
#X obj 1052 381 s 1-playdestroy_rcv;
#X obj 908 405 s 1-overwrite_on_rcv;
#X obj 808 506 s 1-saving_on_rcv;
#X obj 708 282 s 1-glitchbang_rcv;
#X obj 649 336 s 1-reset_table_rcv;
#X obj 570 333 sel 0 1;
#X obj 568 378 tgl 16 0 empty empty empty 0 -8 0 10 #fcfcfc #000000 #000000 0 1;
#X obj 568 399 s 1-record_sound_rcv;
#X obj 474 353 sel 0 1;
#X obj 472 398 tgl 16 0 empty empty empty 0 -8 0 10 #fcfcfc #000000 #000000 0 1;
#X obj 472 419 s 1-glitch_on_rcv;
#X floatatom 331 131 5 0 127 0 - - - 0;
#X floatatom 248 198 5 0 0 0 - - - 0;
#X floatatom 25 38 5 0 0 0 - - - 0;
#X obj 25 91 s 1-glitch_length_range_rcv;
#X obj 240 280 s 1-glitch_height_range_rcv;
#X obj 320 242 s 1-glitch-rate_rcv;
#X obj 22 11 ctlin 50, f 12;
#X obj 25 70 / 127;
#X obj 245 166 ctlin 51;
#X obj 325 94 ctlin 52;
#X obj 258 247 / 127;
#X obj 520 73 notein, f 22;
#X obj 517 112 pack 0 0;
#X obj 502 195 > 0;
#X obj 502 216 change;
#X obj 574 195 > 0;
#X obj 574 216 change;
#X obj 646 196 > 0;
#X obj 646 217 change;
#X obj 718 196 > 0;
#X obj 718 217 change;
#X obj 791 199 > 0;
#X obj 791 220 change;
#X obj 863 200 > 0;
#X obj 863 221 change;
#X obj 935 200 > 0;
#X obj 935 221 change;
#X obj 513 164 route 60 61 62 63 64 65 66, f 65;
#X msg 472 377 0;
#X msg 504 378 1;
#X obj 708 261 sel 1;
#X obj 649 288 sel 1;
#X obj 783 370 sel 0 1;
#X msg 781 394 1;
#X msg 813 395 0;
#X obj 781 415 tgl 16 0 empty empty empty 0 -8 0 10 #fcfcfc #000000 #000000 0 1;
#X obj 908 327 sel 0 1;
#X msg 906 351 1;
#X msg 938 352 0;
#X obj 906 372 tgl 16 0 empty empty empty 0 -8 0 10 #fcfcfc #000000 #000000 0 1;
#X obj 1043 306 sel 0 1;
#X msg 1041 330 1;
#X msg 1073 331 0;
#X obj 1041 351 tgl 16 0 empty empty empty 0 -8 0 10 #fcfcfc #000000 #000000 0 1;
#X obj 636 381 print record;
#X msg 568 357 0;
#X msg 600 357 1;
#X obj 58 392 noteout;
#X msg 49 360 60 \$1;
#X obj 53 331 tgl 16 0 empty empty empty 0 -8 0 10 #fcfcfc #000000 #000000 0 1;
#X obj 70 176 r 1-glitchbang;
#X msg 51 267 1;
#X msg 88 298 0;
#X obj 343 199 + 1;
#X obj 85 268 delay 50;
#X obj 57 224 t b b;
#X obj 837 464 print save;
#X obj 326 165 / 127;
#X text 249 19 MIDI control system for the destroyer instrument only \, currently. will likely change this to direct Bela control;
#X connect 7 0 58 0;
#X connect 7 1 59 0;
#X connect 8 0 9 0;
#X connect 8 0 57 0;
#X connect 10 0 41 0;
#X connect 10 1 42 0;
#X connect 11 0 12 0;
#X connect 13 0 70 0;
#X connect 14 0 23 0;
#X connect 15 0 20 0;
#X connect 19 0 15 0;
#X connect 20 0 16 0;
#X connect 21 0 14 0;
#X connect 22 0 13 0;
#X connect 23 0 17 0;
#X connect 24 0 25 0;
#X connect 24 1 25 1;
#X connect 25 0 40 0;
#X connect 26 0 27 0;
#X connect 27 0 10 0;
#X connect 28 0 29 0;
#X connect 29 0 7 0;
#X connect 30 0 31 0;
#X connect 31 0 44 0;
#X connect 32 0 33 0;
#X connect 33 0 43 0;
#X connect 34 0 35 0;
#X connect 35 0 45 0;
#X connect 36 0 37 0;
#X connect 37 0 49 0;
#X connect 38 0 39 0;
#X connect 39 0 53 0;
#X connect 40 0 26 0;
#X connect 40 1 28 0;
#X connect 40 2 30 0;
#X connect 40 3 32 0;
#X connect 40 4 34 0;
#X connect 40 5 36 0;
#X connect 40 6 38 0;
#X connect 41 0 11 0;
#X connect 42 0 11 0;
#X connect 43 0 5 0;
#X connect 44 0 6 0;
#X connect 45 0 46 0;
#X connect 45 1 47 0;
#X connect 46 0 48 0;
#X connect 47 0 48 0;
#X connect 48 0 4 0;
#X connect 48 0 69 0;
#X connect 49 0 50 0;
#X connect 49 1 51 0;
#X connect 50 0 52 0;
#X connect 51 0 52 0;
#X connect 52 0 3 0;
#X connect 53 0 54 0;
#X connect 53 1 55 0;
#X connect 54 0 56 0;
#X connect 55 0 56 0;
#X connect 56 0 2 0;
#X connect 58 0 8 0;
#X connect 59 0 8 0;
#X connect 61 0 60 0;
#X connect 62 0 61 0;
#X connect 63 0 68 0;
#X connect 64 0 62 0;
#X connect 65 0 62 0;
#X connect 67 0 65 0;
#X connect 68 0 64 0;
#X connect 68 1 67 0;
#X connect 70 0 66 0;
#X connect 70 0 18 0;
#X restore 188 469 pd destroyer_midi;
#X obj 75 37 ys.memory_loss 1 burundi.wav;
#N canvas 63 88 1340 563 bela_instrument 0;
#X obj 134 25 r device;
#X obj 134 46 sel 0 1 2, f 15;
#X msg 115 96 1;
#X msg 147 97 0;
#X obj 40 147 spigot;
#X obj 34 304 s bela_digitalOut19;
#X obj 19 42 r 1-glitchbang;
#X obj 19 63 bng 16 250 50 0 empty empty empty 0 -8 0 10 #fcfcfc #000000 #000000;
#X obj 36 274 tgl 16 0 empty empty empty 0 -8 0 10 #fcfcfc #000000 #000000 0 1;
#X msg 34 226 1;
#X msg 71 257 0;
#X obj 68 227 delay 50;
#X obj 40 183 t b b;
#X text 795 241 glitch;
#X text 500 313 autoglitch;
#X text 837 174 setting1;
#X text 507 447 glitchspeed;
#X text 298 153 length;
#X text 299 376 height;
#X obj 1010 177 s 1-playdestroy_rcv;
#X obj 1107 337 s 1-overwrite_on_rcv;
#X obj 999 337 s 1-saving_on_rcv;
#X obj 903 221 s 1-glitchbang_rcv;
#X obj 688 224 s 1-reset_table_rcv;
#X obj 589 253 tgl 16 0 empty empty empty 0 -8 0 10 #fcfcfc #000000 #000000 0 1;
#X obj 589 274 s 1-record_sound_rcv;
#X obj 493 273 tgl 16 0 empty empty empty 0 -8 0 10 #fcfcfc #000000 #000000 0 1;
#X obj 493 294 s 1-glitch_on_rcv;
#X obj 296 133 s 1-glitch_length_range_rcv;
#X obj 308 342 s 1-glitch_height_range_rcv;
#X obj 586 451 s 1-glitch-rate_rcv;
#X text 521 53 MIDI control system for the destroyer instrument only \, currently. will likely change this to direct Bela control;
#X obj 34 383 s bela_digitalOut20;
#X msg 35 361 1;
#X obj 34 340 loadbang;
#X obj 294 45 adc~ 3, f 12;
#X obj 301 84 ys.snapshot;
#N canvas 150 175 450 300 instrument_select 0;
#X obj 134 25 r device;
#X obj 134 46 sel 0 1 2, f 15;
#X msg 115 96 1;
#X msg 147 97 0;
#X obj 40 147 spigot;
#X obj 48 36 inlet;
#X obj 40 168 outlet;
#X connect 0 0 1 0;
#X connect 1 0 3 0;
#X connect 1 1 3 0;
#X connect 1 2 2 0;
#X connect 2 0 4 1;
#X connect 3 0 4 1;
#X connect 4 0 6 0;
#X connect 5 0 4 0;
#X restore 299 108 pd instrument_select;
#X obj 303 281 ys.snapshot;
#N canvas 150 175 450 300 instrument_select 0;
#X obj 134 25 r device;
#X obj 134 46 sel 0 1 2, f 15;
#X msg 115 96 1;
#X msg 147 97 0;
#X obj 40 147 spigot;
#X obj 48 36 inlet;
#X obj 40 168 outlet;
#X connect 0 0 1 0;
#X connect 1 0 3 0;
#X connect 1 1 3 0;
#X connect 1 2 2 0;
#X connect 2 0 4 1;
#X connect 3 0 4 1;
#X connect 4 0 6 0;
#X connect 5 0 4 0;
#X restore 301 305 pd instrument_select;
#X obj 296 242 adc~ 4, f 12;
#X obj 576 387 ys.snapshot;
#N canvas 150 175 450 300 instrument_select 0;
#X obj 134 25 r device;
#X obj 134 46 sel 0 1 2, f 15;
#X msg 115 96 1;
#X msg 147 97 0;
#X obj 40 147 spigot;
#X obj 48 36 inlet;
#X obj 40 168 outlet;
#X connect 0 0 1 0;
#X connect 1 0 3 0;
#X connect 1 1 3 0;
#X connect 1 2 2 0;
#X connect 2 0 4 1;
#X connect 3 0 4 1;
#X connect 4 0 6 0;
#X connect 5 0 4 0;
#X restore 574 411 pd instrument_select;
#X obj 569 347 adc~ 5, f 12;
#X text 118 279 glitch LED;
#X text 104 362 ready light;
#X obj 1062 240 r bela_digitalIn12;
#N canvas 150 175 450 300 instrument_select 0;
#X obj 134 25 r device;
#X obj 134 46 sel 0 1 2, f 15;
#X msg 115 96 1;
#X msg 147 97 0;
#X obj 40 147 spigot;
#X obj 48 36 inlet;
#X obj 40 168 outlet;
#X connect 0 0 1 0;
#X connect 1 0 3 0;
#X connect 1 1 3 0;
#X connect 1 2 2 0;
#X connect 2 0 4 1;
#X connect 3 0 4 1;
#X connect 4 0 6 0;
#X connect 5 0 4 0;
#X restore 1078 281 pd instrument_select;
#N canvas 150 175 450 300 instrument_select 0;
#X obj 134 25 r device;
#X obj 134 46 sel 0 1 2, f 15;
#X msg 115 96 1;
#X msg 147 97 0;
#X obj 40 147 spigot;
#X obj 48 36 inlet;
#X obj 40 168 outlet;
#X connect 0 0 1 0;
#X connect 1 0 3 0;
#X connect 1 1 3 0;
#X connect 1 2 2 0;
#X connect 2 0 4 1;
#X connect 3 0 4 1;
#X connect 4 0 6 0;
#X connect 5 0 4 0;
#X restore 1018 133 pd instrument_select;
#N canvas 150 175 450 300 instrument_select 0;
#X obj 134 25 r device;
#X obj 134 46 sel 0 1 2, f 15;
#X msg 115 96 1;
#X msg 147 97 0;
#X obj 40 147 spigot;
#X obj 48 36 inlet;
#X obj 40 168 outlet;
#X connect 0 0 1 0;
#X connect 1 0 3 0;
#X connect 1 1 3 0;
#X connect 1 2 2 0;
#X connect 2 0 4 1;
#X connect 3 0 4 1;
#X connect 4 0 6 0;
#X connect 5 0 4 0;
#X restore 864 130 pd instrument_select;
#X obj 848 89 r bela_digitalIn13;
#X obj 911 166 change;
#X obj 911 187 sel 1;
#X obj 1002 92 r bela_digitalIn11;
#N canvas 150 175 450 300 instrument_select 0;
#X obj 134 25 r device;
#X obj 134 46 sel 0 1 2, f 15;
#X msg 115 96 1;
#X msg 147 97 0;
#X obj 40 147 spigot;
#X obj 48 36 inlet;
#X obj 40 168 outlet;
#X connect 0 0 1 0;
#X connect 1 0 3 0;
#X connect 1 1 3 0;
#X connect 1 2 2 0;
#X connect 2 0 4 1;
#X connect 3 0 4 1;
#X connect 4 0 6 0;
#X connect 5 0 4 0;
#X restore 715 124 pd instrument_select;
#X obj 762 160 change;
#X obj 762 181 sel 1;
#X obj 699 83 r bela_digitalIn14;
#N canvas 150 175 450 300 instrument_select 0;
#X obj 134 25 r device;
#X obj 134 46 sel 0 1 2, f 15;
#X msg 115 96 1;
#X msg 147 97 0;
#X obj 40 147 spigot;
#X obj 48 36 inlet;
#X obj 40 168 outlet;
#X connect 0 0 1 0;
#X connect 1 0 3 0;
#X connect 1 1 3 0;
#X connect 1 2 2 0;
#X connect 2 0 4 1;
#X connect 3 0 4 1;
#X connect 4 0 6 0;
#X connect 5 0 4 0;
#X restore 588 197 pd instrument_select;
#X obj 587 173 r bela_digitalIn15;
#N canvas 150 175 450 300 instrument_select 0;
#X obj 134 25 r device;
#X obj 134 46 sel 0 1 2, f 15;
#X msg 115 96 1;
#X msg 147 97 0;
#X obj 40 147 spigot;
#X obj 48 36 inlet;
#X obj 40 168 outlet;
#X connect 0 0 1 0;
#X connect 1 0 3 0;
#X connect 1 1 3 0;
#X connect 1 2 2 0;
#X connect 2 0 4 1;
#X connect 3 0 4 1;
#X connect 4 0 6 0;
#X connect 5 0 4 0;
#X restore 495 118 pd instrument_select;
#X obj 494 94 r bela_digitalIn16;
#X connect 0 0 1 0;
#X connect 1 0 3 0;
#X connect 1 1 3 0;
#X connect 1 2 2 0;
#X connect 2 0 4 1;
#X connect 3 0 4 1;
#X connect 4 0 12 0;
#X connect 6 0 7 0;
#X connect 7 0 4 0;
#X connect 8 0 5 0;
#X connect 9 0 8 0;
#X connect 10 0 8 0;
#X connect 11 0 10 0;
#X connect 12 0 9 0;
#X connect 12 1 11 0;
#X connect 24 0 25 0;
#X connect 26 0 27 0;
#X connect 33 0 32 0;
#X connect 34 0 33 0;
#X connect 35 0 36 0;
#X connect 36 0 37 0;
#X connect 37 0 28 0;
#X connect 38 0 39 0;
#X connect 39 0 29 0;
#X connect 40 0 38 0;
#X connect 41 0 42 0;
#X connect 42 0 30 0;
#X connect 43 0 41 0;
#X connect 46 0 47 0;
#X connect 47 0 21 0;
#X connect 47 0 20 0;
#X connect 48 0 19 0;
#X connect 49 0 51 0;
#X connect 50 0 49 0;
#X connect 51 0 52 0;
#X connect 52 0 22 0;
#X connect 53 0 48 0;
#X connect 54 0 55 0;
#X connect 55 0 56 0;
#X connect 56 0 23 0;
#X connect 57 0 54 0;
#X connect 58 0 24 0;
#X connect 59 0 58 0;
#X connect 60 0 26 0;
#X connect 61 0 60 0;
#X restore 89 493 pd bela_instrument;
#X text 63 515 yann seznec / february 2024 / yannseznec.com;
#X text 403 513 octobox;
#N canvas 490 228 814 605 octobox_controller 0;
#X obj 25 13 ys.comport;
#X obj 50 243 r analog0;
#X obj 50 267 / 1024;
#X floatatom 50 291 5 0 0 0 - - - 0;
#X obj 28 91 r digital0;
#X obj 102 96 r digital1;
#X obj 275 96 r digital2;
#X obj 123 269 / 1024;
#X floatatom 123 293 5 0 0 0 - - - 0;
#X obj 123 245 r analog1;
#X obj 49 412 / 1024;
#X floatatom 49 436 5 0 0 0 - - - 0;
#X obj 49 388 r analog4;
#X obj 196 271 / 1024;
#X floatatom 196 295 5 0 0 0 - - - 0;
#X obj 196 247 r analog2;
#X obj 269 412 / 1024;
#X floatatom 269 436 5 0 0 0 - - - 0;
#X obj 269 388 r analog7;
#X obj 124 413 / 1024;
#X floatatom 124 437 5 0 0 0 - - - 0;
#X obj 269 273 / 1024;
#X floatatom 269 297 5 0 0 0 - - - 0;
#X obj 269 249 r analog3;
#X obj 124 389 r analog5;
#X obj 190 414 / 1024;
#X floatatom 190 438 5 0 0 0 - - - 0;
#X obj 190 390 r analog6;
#X text 203 554 autoglitch;
#X obj 342 482 s 1-playdestroy_rcv;
#X obj 147 209 s 1-overwrite_on_rcv;
#X obj 39 209 s 1-saving_on_rcv;
#X obj 300 193 s 1-glitchbang_rcv;
#X obj 163 168 s 1-reset_table_rcv;
#X obj 435 151 tgl 16 0 empty empty empty 0 -8 0 10 #fcfcfc #000000 #000000 0 1;
#X obj 435 172 s 1-record_sound_rcv;
#X obj 35 143 tgl 16 0 empty empty empty 0 -8 0 10 #fcfcfc #000000 #000000 0 1;
#X obj 196 535 s 1-glitch_on_rcv;
#X obj 39 335 s 1-glitch_length_range_rcv;
#X obj 81 357 s 1-glitch_height_range_rcv;
#X obj 58 507 s 1-glitch-rate_rcv;
#X obj 32 123 sel 1;
#X obj 349 99 r digital3;
#X obj 425 101 r digital4;
#X obj 145 131 sel 1;
#X obj 295 139 sel 1;
#X text 146 14 control system for using my custom built serial/midi controller;
#X obj 204 503 > 0;
#X obj 325 458 > 0;
#X connect 1 0 2 0;
#X connect 2 0 3 0;
#X connect 3 0 38 0;
#X connect 4 0 41 0;
#X connect 5 0 44 0;
#X connect 6 0 45 0;
#X connect 7 0 8 0;
#X connect 8 0 39 0;
#X connect 9 0 7 0;
#X connect 10 0 11 0;
#X connect 11 0 40 0;
#X connect 11 0 47 0;
#X connect 12 0 10 0;
#X connect 13 0 14 0;
#X connect 15 0 13 0;
#X connect 16 0 17 0;
#X connect 17 0 48 0;
#X connect 18 0 16 0;
#X connect 19 0 20 0;
#X connect 21 0 22 0;
#X connect 23 0 21 0;
#X connect 24 0 19 0;
#X connect 25 0 26 0;
#X connect 27 0 25 0;
#X connect 34 0 35 0;
#X connect 36 0 31 0;
#X connect 36 0 30 0;
#X connect 41 0 36 0;
#X connect 43 0 34 0;
#X connect 44 0 33 0;
#X connect 45 0 32 0;
#X connect 47 0 37 0;
#X connect 48 0 29 0;
#X restore 207 492 pd octobox_controller;
#X connect 8 0 0 0;
#X connect 8 0 0 1;
