#N canvas 90 193 520 559 10;
#X obj 60 472 dac~, f 7;
#N canvas 150 175 1065 691 bela 0;
#X obj 18 94 loadbang;
#X msg 18 118 out 19;
#X obj 18 142 s bela_setDigital;
#X obj 249 237 tgl 19 0 empty empty empty 0 -10 0 12 #fcfcfc #000000 #000000 0 1;
#X msg 77 117 in 12;
#X obj 267 141 r bela_digitalIn12;
#X obj 266 179 bela_debounce;
#X obj 249 272 s 1-playdestroy_rcv;
#X obj 119 270 s bela_digitalOut19;
#X msg 126 238 1;
#X obj 125 205 loadbang;
#X obj 256 209 change;
#X text 19 18 stuff for making it run on a Bela board. unnecessary if you aren't using a Bela.;
#X connect 0 0 1 0;
#X connect 0 0 4 0;
#X connect 1 0 2 0;
#X connect 3 0 7 0;
#X connect 4 0 2 0;
#X connect 5 0 6 0;
#X connect 6 0 11 0;
#X connect 9 0 8 0;
#X connect 10 0 9 0;
#X connect 11 0 3 0;
#X restore 119 469 pd bela;
#X obj 60 33 ys.memory_loss 1 poetry.wav;
#X connect 2 0 0 0;
#X connect 2 0 0 1;
