#N canvas 244 156 736 576 10;
#X obj 60 472 dac~, f 7;
#N canvas 339 42 1065 691 bela 0;
#X obj 18 94 loadbang;
#X msg 18 118 out 19;
#X obj 18 142 s bela_setDigital;
#X obj 249 237 tgl 19 0 empty empty empty 0 -10 0 12 #fcfcfc #000000 #000000 0 1;
#X msg 77 117 in 12;
#X obj 297 88 r bela_digitalIn12;
#X obj 296 126 bela_debounce;
#X obj 249 270 s 1-playdestroy_rcv;
#X obj 119 270 s bela_digitalOut19;
#X msg 123 209 1;
#X obj 124 181 loadbang;
#X obj 286 156 change;
#X text 19 18 stuff for making it run on a Bela board. unnecessary if you aren't using a Bela.;
#X text 146 318 this is for the personal boxes;
#X obj 18 202 r LEDflutter;
#N canvas 68 415 450 300 LED 0;
#X obj 97 97 t b b b;
#X obj 149 125 delay 50;
#X obj 117 148 delay 150;
#X obj 97 169 delay 175;
#X obj 51 234 s bela_digitalOut19;
#X msg 88 56 0;
#X msg 188 151 1;
#X msg 173 175 0;
#X msg 75 191 1;
#X obj 91 23 inlet;
#X connect 0 0 3 0;
#X connect 0 1 2 0;
#X connect 0 2 1 0;
#X connect 1 0 6 0;
#X connect 2 0 7 0;
#X connect 3 0 8 0;
#X connect 5 0 4 0;
#X connect 6 0 4 0;
#X connect 7 0 4 0;
#X connect 8 0 4 0;
#X connect 9 0 5 0;
#X connect 9 0 0 0;
#X restore 33 306 pd LED;
#X obj 739 226 tgl 19 0 empty empty empty 0 -10 0 12 #fcfcfc #000000 #000000 0 1;
#X obj 760 66 r bela_digitalIn12;
#X obj 756 168 bela_debounce;
#X obj 746 198 change;
#X obj 696 268 sel 0 1;
#X obj 745 314 s 1-record_sound_rcv;
#X msg 721 350 0;
#X msg 690 349 1;
#X obj 706 419 s 1-playdestroy_rcv;
#X obj 822 358 sel 1 0, f 14;
#X msg 822 465 bang;
#X obj 872 465 timer;
#X floatatom 872 488 7 0 0 0 - - - 0;
#X msg 872 423 tempo 1 samp;
#X obj 872 401 loadbang;
#X obj 822 405 t b b;
#X obj 676 537 < 7000;
#X obj 676 561 sel 1;
#X obj 675 595 s shortPress;
#X obj 895 254 bng 16 250 50 0 empty empty empty 0 -8 0 10 #fcfcfc #000000 #000000;
#X obj 908 292 s 1-reset_table_rcv;
#X text 721 23 this is for the one button one mic device;
#X obj 541 421 s bela_digitalOut19;
#X obj 501 298 r 1-glitchbang;
#X msg 560 349 0;
#X obj 493 360 delay 100;
#X msg 493 381 1;
#X obj 18 245 spigot;
#X obj 186 54 r device;
#X obj 186 75 sel 0 1 2, f 15;
#X msg 167 125 1;
#X obj 121 241 spigot;
#X msg 199 126 0;
#X obj 274 194 spigot;
#X obj 580 110 r device;
#X obj 580 131 sel 0 1 2, f 15;
#X msg 561 181 1;
#X msg 593 182 0;
#X obj 762 120 spigot;
#X connect 0 0 1 0;
#X connect 0 0 4 0;
#X connect 1 0 2 0;
#X connect 3 0 7 0;
#X connect 4 0 2 0;
#X connect 5 0 6 0;
#X connect 6 0 11 0;
#X connect 9 0 47 0;
#X connect 10 0 9 0;
#X connect 11 0 49 0;
#X connect 14 0 43 0;
#X connect 16 0 20 0;
#X connect 16 0 21 0;
#X connect 16 0 25 0;
#X connect 17 0 54 0;
#X connect 18 0 19 0;
#X connect 19 0 16 0;
#X connect 20 0 23 0;
#X connect 20 1 22 0;
#X connect 20 1 35 0;
#X connect 22 0 24 0;
#X connect 22 0 38 0;
#X connect 23 0 24 0;
#X connect 23 0 38 0;
#X connect 25 0 31 0;
#X connect 25 1 27 1;
#X connect 26 0 27 0;
#X connect 27 0 28 0;
#X connect 28 0 32 0;
#X connect 29 0 27 0;
#X connect 30 0 29 0;
#X connect 31 0 26 0;
#X connect 32 0 33 0;
#X connect 33 0 34 0;
#X connect 33 0 22 0;
#X connect 35 0 36 0;
#X connect 39 0 40 0;
#X connect 39 0 41 0;
#X connect 40 0 38 0;
#X connect 41 0 42 0;
#X connect 42 0 38 0;
#X connect 43 0 15 0;
#X connect 44 0 45 0;
#X connect 45 0 46 0;
#X connect 45 1 48 0;
#X connect 45 2 48 0;
#X connect 46 0 43 1;
#X connect 46 0 47 1;
#X connect 46 0 49 1;
#X connect 47 0 8 0;
#X connect 48 0 43 1;
#X connect 48 0 47 1;
#X connect 48 0 49 1;
#X connect 49 0 3 0;
#X connect 50 0 51 0;
#X connect 51 0 53 0;
#X connect 51 1 52 0;
#X connect 51 2 53 0;
#X connect 52 0 54 1;
#X connect 53 0 54 1;
#X connect 54 0 18 0;
#X restore 119 469 pd bela;
#X text 63 515 yann seznec / december 2023 / yannseznec.com;
#X obj 386 464 vradio 16 1 1 3 device device_rcv which\ device 0 -8 0 10 #fcfcfc #000000 #000000 0;
#X text 407 463 memory box;
#X text 406 480 one button;
#X text 405 496 destroyer instrument;
#N canvas 108 119 775 571 presets 0;
#X obj 44 193 bng 16 250 50 0 empty empty empty 0 -8 0 10 #fcfcfc #000000 #000000;
#X msg 45 220 \; 1-glitch_on_rcv 1 \; 1-overwrite_on_rcv 1 \; 1-saving_on_rcv 1 \; 1-glitch_length_range_rcv 0.05 \; 1-glitch_height_range_rcv 0.8 \; 1-glitch-rate_rcv 0.01 \; 1-reset_table_rcv bang \;;
#X obj 47 82 r device;
#X obj 47 103 sel 0 1 2, f 61;
#X obj 264 192 bng 16 250 50 0 empty empty empty 0 -8 0 10 #fcfcfc #000000 #000000;
#X msg 265 219 \; 1-glitch_on_rcv 1 \; 1-overwrite_on_rcv 1 \; 1-saving_on_rcv 1 \; 1-glitch_length_range_rcv 0.05 \; 1-glitch_height_range_rcv 0.8 \; 1-glitch-rate_rcv 0.01 \; 1-reset_table_rcv bang \;;
#X obj 477 195 bng 16 250 50 0 empty empty empty 0 -8 0 10 #fcfcfc #000000 #000000;
#X msg 478 222 \; 1-glitch_on_rcv 0 \; 1-overwrite_on_rcv 0 \; 1-saving_on_rcv 0 \; 1-glitch_length_range_rcv 0.05 \; 1-glitch_height_range_rcv 0.8 \; 1-glitch-rate_rcv 0.01 \; 1-reset_table_rcv bang \;;
#X connect 0 0 1 0;
#X connect 2 0 3 0;
#X connect 3 0 0 0;
#X connect 3 1 4 0;
#X connect 3 2 6 0;
#X connect 4 0 5 0;
#X connect 6 0 7 0;
#X restore 308 467 pd presets;
#N canvas 361 29 1043 613 destroyer_midi 0;
#X text 362 157 record;
#X text 523 207 glitch;
#X text 244 89 autoglitch;
#X text 565 140 setting1;
#X text 659 145 setting2;
#X text 819 82 play;
#X text 406 126 reset table;
#X text 150 151 glitchspeed;
#X text 26 119 length;
#X text 28 298 height;
#X obj 240 64 r digital0;
#X obj 319 105 r digital1;
#X obj 406 65 r digital2;
#X obj 491 68 r digital3;
#X obj 804 13 r digital6;
#X obj 804 34 change;
#X obj 664 97 s 1-playdestroy_rcv;
#X obj 808 146 change;
#X obj 811 232 s 1-overwrite_on_rcv;
#X obj 831 277 change;
#X obj 792 419 s 1-saving_on_rcv;
#X floatatom 491 89 5 0 0 0 - - - 0;
#X obj 491 109 change;
#X obj 491 151 s 1-glitchbang_rcv;
#X obj 416 190 s 1-reset_table_rcv;
#X floatatom 416 101 5 0 0 0 - - - 0;
#X obj 416 121 change;
#X obj 319 153 change;
#X obj 319 174 sel 0 1;
#X obj 317 219 tgl 16 0 empty empty empty 0 -8 0 10 #fcfcfc #000000 #000000 0 1;
#X obj 317 240 s 1-record_sound_rcv;
#X floatatom 240 85 5 0 0 0 - - - 0;
#X obj 223 173 change;
#X obj 223 194 sel 0 1;
#X obj 221 239 tgl 16 0 empty empty empty 0 -8 0 10 #fcfcfc #000000 #000000 0 1;
#X obj 221 260 s 1-glitch_on_rcv;
#X floatatom 325 306 5 0 127 0 - - - 0;
#X floatatom 44 226 5 0 0 0 - - - 0;
#X floatatom 25 38 5 0 0 0 - - - 0;
#X obj 25 91 s 1-glitch_length_range_rcv;
#X obj 36 308 s 1-glitch_height_range_rcv;
#X obj 314 417 s 1-glitch-rate_rcv;
#X obj 903 89 print play;
#X obj 22 11 ctlin 50, f 12;
#X obj 25 70 / 127;
#X obj 115 199 ctlin 51;
#X obj 392 289 ctlin 52;
#X obj 54 275 / 127;
#X obj 538 382 notein, f 22;
#X obj 535 421 pack 0 0;
#X obj 447 505 > 0;
#X obj 447 526 change;
#X obj 449 556 s digital0;
#X obj 519 505 > 0;
#X obj 519 526 change;
#X obj 591 506 > 0;
#X obj 591 527 change;
#X obj 663 506 > 0;
#X obj 663 527 change;
#X obj 736 509 > 0;
#X obj 736 530 change;
#X obj 808 510 > 0;
#X obj 808 531 change;
#X obj 880 510 > 0;
#X obj 880 531 change;
#X obj 531 473 route 60 61 62 63 64 65 66, f 65;
#X obj 521 556 s digital1;
#X obj 593 557 s digital2;
#X obj 665 557 s digital3;
#X obj 738 560 s digital4;
#X obj 810 561 s digital5;
#X obj 882 561 s digital6;
#X msg 221 218 0;
#X msg 253 219 1;
#X obj 491 130 sel 1;
#X obj 416 142 sel 1;
#X obj 767 283 sel 0 1;
#X msg 765 307 1;
#X msg 797 308 0;
#X obj 765 328 tgl 16 0 empty empty empty 0 -8 0 10 #fcfcfc #000000 #000000 0 1;
#X obj 742 181 sel 0 1;
#X msg 740 205 1;
#X msg 772 206 0;
#X obj 740 226 tgl 16 0 empty empty empty 0 -8 0 10 #fcfcfc #000000 #000000 0 1;
#X obj 719 16 change;
#X obj 655 22 sel 0 1;
#X msg 653 46 1;
#X msg 685 47 0;
#X obj 653 67 tgl 16 0 empty empty empty 0 -8 0 10 #fcfcfc #000000 #000000 0 1;
#X obj 385 222 print record;
#X msg 317 198 0;
#X msg 349 198 1;
#X obj 160 574 noteout;
#X msg 151 542 60 \$1;
#X obj 155 513 tgl 16 0 empty empty empty 0 -8 0 10 #fcfcfc #000000 #000000 0 1;
#X obj 172 358 r 1-glitchbang;
#X msg 153 449 1;
#X msg 190 480 0;
#X obj 337 374 + 1;
#X obj 187 450 delay 50;
#X obj 159 406 t b b;
#X obj 821 377 print save;
#X obj 808 125 r digital5;
#X obj 831 256 r digital4;
#X obj 320 340 / 127;
#X text 249 19 MIDI control system for the destroyer instrument only \, currently. will likely change this to direct Bela control;
#X connect 10 0 31 0;
#X connect 11 0 27 0;
#X connect 12 0 25 0;
#X connect 13 0 21 0;
#X connect 14 0 15 0;
#X connect 15 0 84 0;
#X connect 17 0 80 0;
#X connect 19 0 76 0;
#X connect 21 0 22 0;
#X connect 22 0 74 0;
#X connect 25 0 26 0;
#X connect 26 0 75 0;
#X connect 27 0 28 0;
#X connect 28 0 90 0;
#X connect 28 1 91 0;
#X connect 29 0 30 0;
#X connect 29 0 89 0;
#X connect 31 0 32 0;
#X connect 32 0 33 0;
#X connect 33 0 72 0;
#X connect 33 1 73 0;
#X connect 34 0 35 0;
#X connect 36 0 104 0;
#X connect 37 0 47 0;
#X connect 38 0 44 0;
#X connect 43 0 38 0;
#X connect 44 0 39 0;
#X connect 45 0 37 0;
#X connect 46 0 36 0;
#X connect 47 0 40 0;
#X connect 48 0 49 0;
#X connect 48 1 49 1;
#X connect 49 0 65 0;
#X connect 50 0 51 0;
#X connect 51 0 52 0;
#X connect 53 0 54 0;
#X connect 54 0 66 0;
#X connect 55 0 56 0;
#X connect 56 0 67 0;
#X connect 57 0 58 0;
#X connect 58 0 68 0;
#X connect 59 0 60 0;
#X connect 60 0 69 0;
#X connect 61 0 62 0;
#X connect 62 0 70 0;
#X connect 63 0 64 0;
#X connect 64 0 71 0;
#X connect 65 0 50 0;
#X connect 65 1 53 0;
#X connect 65 2 55 0;
#X connect 65 3 57 0;
#X connect 65 4 59 0;
#X connect 65 5 61 0;
#X connect 65 6 63 0;
#X connect 72 0 34 0;
#X connect 73 0 34 0;
#X connect 74 0 23 0;
#X connect 75 0 24 0;
#X connect 76 0 77 0;
#X connect 76 1 78 0;
#X connect 77 0 79 0;
#X connect 78 0 79 0;
#X connect 79 0 20 0;
#X connect 79 0 101 0;
#X connect 80 0 81 0;
#X connect 80 1 82 0;
#X connect 81 0 83 0;
#X connect 82 0 83 0;
#X connect 83 0 18 0;
#X connect 84 0 85 0;
#X connect 85 0 86 0;
#X connect 85 1 87 0;
#X connect 86 0 88 0;
#X connect 87 0 88 0;
#X connect 88 0 16 0;
#X connect 90 0 29 0;
#X connect 91 0 29 0;
#X connect 93 0 92 0;
#X connect 94 0 93 0;
#X connect 95 0 100 0;
#X connect 96 0 94 0;
#X connect 97 0 94 0;
#X connect 99 0 97 0;
#X connect 100 0 96 0;
#X connect 100 1 99 0;
#X connect 102 0 17 0;
#X connect 103 0 19 0;
#X connect 104 0 98 0;
#X connect 104 0 41 0;
#X restore 188 469 pd destroyer_midi;
#X obj 75 37 ys.memory_loss 1 burundi.wav;
#X connect 9 0 0 0;
#X connect 9 0 0 1;
