#N canvas 199 94 1069 582 10;
#X obj 60 472 dac~, f 7;
#N canvas 150 175 1065 691 bela 0;
#X obj 18 94 loadbang;
#X msg 18 118 out 19;
#X obj 18 142 s bela_setDigital;
#X obj 249 237 tgl 19 0 empty empty empty 0 -10 0 12 #fcfcfc #000000 #000000 0 1;
#X msg 77 117 in 12;
#X obj 267 141 r bela_digitalIn12;
#X obj 266 179 bela_debounce;
#X obj 249 272 s 1-playdestroy_rcv;
#X obj 119 270 s bela_digitalOut19;
#X msg 126 238 1;
#X obj 125 205 loadbang;
#X obj 256 209 change;
#X text 19 18 stuff for making it run on a Bela board. unnecessary if you aren't using a Bela.;
#X connect 0 0 1 0;
#X connect 0 0 4 0;
#X connect 1 0 2 0;
#X connect 3 0 7 0;
#X connect 4 0 2 0;
#X connect 5 0 6 0;
#X connect 6 0 11 0;
#X connect 9 0 8 0;
#X connect 10 0 9 0;
#X connect 11 0 3 0;
#X restore 119 469 pd bela;
#X obj 564 186 teensy_comport_destroyer;
#N canvas 129 259 1043 613 comport 1;
#X text 362 157 record;
#X text 523 207 glitch;
#X text 244 89 autoglitch;
#X text 565 140 setting1;
#X text 659 145 setting2;
#X text 819 82 play;
#X text 406 126 reset table;
#X text 150 151 glitchspeed;
#X text 26 119 length;
#X text 28 298 height;
#X obj 28 -7 r analog0;
#X obj 37 195 r analog1;
#X obj 325 285 r analog2;
#X obj 240 64 r digital0;
#X obj 319 105 r digital1;
#X obj 406 65 r digital2;
#X obj 491 68 r digital3;
#X obj 804 13 r digital6;
#X obj 804 34 change;
#X obj 805 60 s 1-playdestroy_rcv;
#X obj 808 146 change;
#X obj 808 167 s 1-overwrite_on_rcv;
#X obj 835 343 change;
#X obj 835 364 s 1-saving_on_rcv;
#X floatatom 491 89 5 0 0 0 - - - 0;
#X obj 491 109 change;
#X obj 491 130 sel 0;
#X obj 491 151 s 1-glitchbang_rcv;
#X obj 416 190 s 1-reset_table_rcv;
#X floatatom 416 101 5 0 0 0 - - - 0;
#X obj 416 121 change;
#X obj 416 142 sel 0;
#X obj 319 153 change;
#X obj 319 174 sel 0 1;
#X msg 317 198 1;
#X msg 349 199 0;
#X obj 317 219 tgl 16 0 empty empty empty 0 -8 0 10 #fcfcfc #000000 #000000 0 1;
#X obj 317 240 s 1-record_sound_rcv;
#X floatatom 240 85 5 0 0 0 - - - 0;
#X obj 223 173 change;
#X obj 223 194 sel 0 1;
#X msg 221 218 1;
#X msg 253 219 0;
#X obj 221 239 tgl 16 0 empty empty empty 0 -8 0 10 #fcfcfc #000000 #000000 0 1;
#X obj 221 260 s 1-glitch_on_rcv;
#X obj 28 46 / 1024;
#X obj 54 275 / 1024;
#X obj 320 340 / 102.4;
#X floatatom 325 306 5 0 0 0 - - - 0;
#X floatatom 44 226 5 0 0 0 - - - 0;
#X floatatom 28 14 5 0 0 0 - - - 0;
#X obj 28 67 s 1-glitch_length_range_rcv;
#X obj 36 308 s 1-glitch_height_range_rcv;
#X obj 320 361 s 1-glitch-rate_rcv;
#X obj 808 125 r digital4;
#X obj 835 322 r digital5;
#X obj 903 89 print play;
#X connect 10 0 50 0;
#X connect 11 0 49 0;
#X connect 12 0 48 0;
#X connect 13 0 38 0;
#X connect 15 0 29 0;
#X connect 16 0 24 0;
#X connect 17 0 18 0;
#X connect 18 0 19 0;
#X connect 18 0 56 0;
#X connect 20 0 21 0;
#X connect 22 0 23 0;
#X connect 24 0 25 0;
#X connect 25 0 26 0;
#X connect 26 0 27 0;
#X connect 29 0 30 0;
#X connect 30 0 31 0;
#X connect 31 0 28 0;
#X connect 32 0 33 0;
#X connect 33 0 34 0;
#X connect 33 1 35 0;
#X connect 34 0 36 0;
#X connect 35 0 36 0;
#X connect 36 0 37 0;
#X connect 38 0 39 0;
#X connect 39 0 40 0;
#X connect 40 0 41 0;
#X connect 40 1 42 0;
#X connect 41 0 43 0;
#X connect 42 0 43 0;
#X connect 43 0 44 0;
#X connect 45 0 51 0;
#X connect 46 0 52 0;
#X connect 47 0 53 0;
#X connect 48 0 47 0;
#X connect 49 0 46 0;
#X connect 50 0 45 0;
#X connect 54 0 20 0;
#X connect 55 0 22 0;
#X restore 563 86 pd comport routing;
#X obj 60 33 ys.memory_loss 1 burundi_short.wav;
#X connect 4 0 0 0;
#X connect 4 0 0 1;
