#N canvas 0 156 612 582 10;
#X obj 60 472 dac~, f 7;
#N canvas 150 175 1065 691 bela 0;
#X obj 18 94 loadbang;
#X msg 18 118 out 19;
#X obj 18 142 s bela_setDigital;
#X obj 249 237 tgl 19 0 empty empty empty 0 -10 0 12 #fcfcfc #000000 #000000 0 1;
#X msg 77 117 in 12;
#X obj 267 141 r bela_digitalIn12;
#X obj 266 179 bela_debounce;
#X obj 249 272 s 1-playdestroy_rcv;
#X obj 119 270 s bela_digitalOut19;
#X msg 126 238 1;
#X obj 125 205 loadbang;
#X obj 256 209 change;
#X text 19 18 stuff for making it run on a Bela board. unnecessary if you aren't using a Bela.;
#X connect 0 0 1 0;
#X connect 0 0 4 0;
#X connect 1 0 2 0;
#X connect 3 0 7 0;
#X connect 4 0 2 0;
#X connect 5 0 6 0;
#X connect 6 0 11 0;
#X connect 9 0 8 0;
#X connect 10 0 9 0;
#X connect 11 0 3 0;
#X restore 119 469 pd bela;
#N canvas 348 75 1043 613 midi 0;
#X text 362 157 record;
#X text 523 207 glitch;
#X text 244 89 autoglitch;
#X text 565 140 setting1;
#X text 659 145 setting2;
#X text 819 82 play;
#X text 406 126 reset table;
#X text 150 151 glitchspeed;
#X text 26 119 length;
#X text 28 298 height;
#X obj 240 64 r digital0;
#X obj 319 105 r digital1;
#X obj 406 65 r digital2;
#X obj 491 68 r digital3;
#X obj 804 13 r digital6;
#X obj 804 34 change;
#X obj 664 97 s 1-playdestroy_rcv;
#X obj 808 146 change;
#X obj 811 232 s 1-overwrite_on_rcv;
#X obj 831 277 change;
#X obj 792 419 s 1-saving_on_rcv;
#X floatatom 491 89 5 0 0 0 - - - 0;
#X obj 491 109 change;
#X obj 491 151 s 1-glitchbang_rcv;
#X obj 416 190 s 1-reset_table_rcv;
#X floatatom 416 101 5 0 0 0 - - - 0;
#X obj 416 121 change;
#X obj 319 153 change;
#X obj 319 174 sel 0 1;
#X obj 317 219 tgl 16 0 empty empty empty 0 -8 0 10 #fcfcfc #000000 #000000 0 1;
#X obj 317 240 s 1-record_sound_rcv;
#X floatatom 240 85 5 0 0 0 - - - 0;
#X obj 223 173 change;
#X obj 223 194 sel 0 1;
#X obj 221 239 tgl 16 0 empty empty empty 0 -8 0 10 #fcfcfc #000000 #000000 0 1;
#X obj 221 260 s 1-glitch_on_rcv;
#X floatatom 325 306 5 0 127 0 - - - 0;
#X floatatom 44 226 5 0 0 0 - - - 0;
#X floatatom 25 38 5 0 0 0 - - - 0;
#X obj 25 91 s 1-glitch_length_range_rcv;
#X obj 36 308 s 1-glitch_height_range_rcv;
#X obj 314 417 s 1-glitch-rate_rcv;
#X obj 903 89 print play;
#X obj 107 15 ctlin 50, f 12;
#X obj 25 70 / 127;
#X obj 320 340 / 12.7;
#X obj 115 199 ctlin 51;
#X obj 392 289 ctlin 52;
#X obj 54 275 / 127;
#X obj 538 382 notein, f 22;
#X obj 535 421 pack 0 0;
#X obj 447 505 > 0;
#X obj 447 526 change;
#X obj 449 556 s digital0;
#X obj 519 505 > 0;
#X obj 519 526 change;
#X obj 591 506 > 0;
#X obj 591 527 change;
#X obj 663 506 > 0;
#X obj 663 527 change;
#X obj 736 509 > 0;
#X obj 736 530 change;
#X obj 808 510 > 0;
#X obj 808 531 change;
#X obj 880 510 > 0;
#X obj 880 531 change;
#X obj 531 473 route 60 61 62 63 64 65 66, f 65;
#X obj 521 556 s digital1;
#X obj 593 557 s digital2;
#X obj 665 557 s digital3;
#X obj 738 560 s digital4;
#X obj 810 561 s digital5;
#X obj 882 561 s digital6;
#X msg 221 218 0;
#X msg 253 219 1;
#X obj 491 130 sel 1;
#X obj 416 142 sel 1;
#X obj 767 283 sel 0 1;
#X msg 765 307 1;
#X msg 797 308 0;
#X obj 765 328 tgl 16 0 empty empty empty 0 -8 0 10 #fcfcfc #000000 #000000 0 1;
#X obj 742 181 sel 0 1;
#X msg 740 205 1;
#X msg 772 206 0;
#X obj 740 226 tgl 16 0 empty empty empty 0 -8 0 10 #fcfcfc #000000 #000000 0 1;
#X obj 719 16 change;
#X obj 655 22 sel 0 1;
#X msg 653 46 1;
#X msg 685 47 0;
#X obj 653 67 tgl 16 0 empty empty empty 0 -8 0 10 #fcfcfc #000000 #000000 0 1;
#X obj 385 222 print record;
#X msg 317 198 0;
#X msg 349 198 1;
#X obj 160 574 noteout;
#X msg 151 542 60 \$1;
#X obj 155 513 tgl 16 0 empty empty empty 0 -8 0 10 #fcfcfc #000000 #000000 0 1;
#X obj 172 358 r 1-glitchbang;
#X msg 153 449 1;
#X msg 190 480 0;
#X obj 337 374 + 1;
#X obj 187 450 delay 50;
#X obj 159 406 t b b;
#X obj 821 377 print save;
#X obj 808 125 r digital5;
#X obj 831 256 r digital4;
#X connect 10 0 31 0;
#X connect 11 0 27 0;
#X connect 12 0 25 0;
#X connect 13 0 21 0;
#X connect 14 0 15 0;
#X connect 15 0 85 0;
#X connect 17 0 81 0;
#X connect 19 0 77 0;
#X connect 21 0 22 0;
#X connect 22 0 75 0;
#X connect 25 0 26 0;
#X connect 26 0 76 0;
#X connect 27 0 28 0;
#X connect 28 0 91 0;
#X connect 28 1 92 0;
#X connect 29 0 30 0;
#X connect 29 0 90 0;
#X connect 31 0 32 0;
#X connect 32 0 33 0;
#X connect 33 0 73 0;
#X connect 33 1 74 0;
#X connect 34 0 35 0;
#X connect 36 0 45 0;
#X connect 37 0 48 0;
#X connect 38 0 44 0;
#X connect 43 0 38 0;
#X connect 44 0 39 0;
#X connect 45 0 99 0;
#X connect 46 0 37 0;
#X connect 47 0 36 0;
#X connect 48 0 40 0;
#X connect 49 0 50 0;
#X connect 49 1 50 1;
#X connect 50 0 66 0;
#X connect 51 0 52 0;
#X connect 52 0 53 0;
#X connect 54 0 55 0;
#X connect 55 0 67 0;
#X connect 56 0 57 0;
#X connect 57 0 68 0;
#X connect 58 0 59 0;
#X connect 59 0 69 0;
#X connect 60 0 61 0;
#X connect 61 0 70 0;
#X connect 62 0 63 0;
#X connect 63 0 71 0;
#X connect 64 0 65 0;
#X connect 65 0 72 0;
#X connect 66 0 51 0;
#X connect 66 1 54 0;
#X connect 66 2 56 0;
#X connect 66 3 58 0;
#X connect 66 4 60 0;
#X connect 66 5 62 0;
#X connect 66 6 64 0;
#X connect 73 0 34 0;
#X connect 74 0 34 0;
#X connect 75 0 23 0;
#X connect 76 0 24 0;
#X connect 77 0 78 0;
#X connect 77 1 79 0;
#X connect 78 0 80 0;
#X connect 79 0 80 0;
#X connect 80 0 20 0;
#X connect 80 0 102 0;
#X connect 81 0 82 0;
#X connect 81 1 83 0;
#X connect 82 0 84 0;
#X connect 83 0 84 0;
#X connect 84 0 18 0;
#X connect 85 0 86 0;
#X connect 86 0 87 0;
#X connect 86 1 88 0;
#X connect 87 0 89 0;
#X connect 88 0 89 0;
#X connect 89 0 16 0;
#X connect 91 0 29 0;
#X connect 92 0 29 0;
#X connect 94 0 93 0;
#X connect 95 0 94 0;
#X connect 96 0 101 0;
#X connect 97 0 95 0;
#X connect 98 0 95 0;
#X connect 99 0 41 0;
#X connect 100 0 98 0;
#X connect 101 0 97 0;
#X connect 101 1 100 0;
#X connect 103 0 17 0;
#X connect 104 0 19 0;
#X restore 175 468 pd midi routing;
#X text 63 515 yann seznec / december 2023 / yannseznec.com;
#X obj 60 36 ys.memory_loss 1 theSound.wav;
#X connect 4 0 0 0;
#X connect 4 0 0 1;
