#N canvas 0 25 849 824 10;
#X obj 91 664 dac~, f 7;
#N canvas 233 181 1065 691 bela 0;
#X obj 249 237 tgl 19 0 empty empty empty 0 -10 0 12 #fcfcfc #000000 #000000 0 1;
#X obj 297 88 r bela_digitalIn12;
#X obj 296 126 bela_debounce;
#X obj 249 270 s 1-playdestroy_rcv;
#X obj 119 270 s bela_digitalOut19;
#X msg 118 208 1;
#X obj 286 156 change;
#X text 19 18 stuff for making it run on a Bela board. unnecessary if you aren't using a Bela.;
#X text 146 318 this is for the personal boxes;
#X obj 18 202 r LEDflutter;
#N canvas 68 415 450 300 LED 0;
#X obj 97 97 t b b b;
#X obj 149 125 delay 50;
#X obj 117 148 delay 150;
#X obj 97 169 delay 175;
#X obj 51 234 s bela_digitalOut19;
#X msg 88 56 0;
#X msg 188 151 1;
#X msg 173 175 0;
#X msg 75 191 1;
#X obj 91 23 inlet;
#X connect 0 0 3 0;
#X connect 0 1 2 0;
#X connect 0 2 1 0;
#X connect 1 0 6 0;
#X connect 2 0 7 0;
#X connect 3 0 8 0;
#X connect 5 0 4 0;
#X connect 6 0 4 0;
#X connect 7 0 4 0;
#X connect 8 0 4 0;
#X connect 9 0 5 0;
#X connect 9 0 0 0;
#X restore 33 306 pd LED;
#X obj 739 226 tgl 19 0 empty empty empty 0 -10 0 12 #fcfcfc #000000 #000000 0 1;
#X obj 760 66 r bela_digitalIn12;
#X obj 756 168 bela_debounce;
#X obj 746 198 change;
#X obj 696 268 sel 0 1;
#X obj 745 314 s 1-record_sound_rcv;
#X msg 721 350 0;
#X msg 690 349 1;
#X obj 706 419 s 1-playdestroy_rcv;
#X obj 822 358 sel 1 0, f 14;
#X msg 822 465 bang;
#X obj 872 465 timer;
#X floatatom 872 488 7 0 0 0 - - - 0;
#X msg 872 423 tempo 1 samp;
#X obj 872 401 loadbang;
#X obj 822 405 t b b;
#X obj 676 537 < 7000;
#X obj 676 561 sel 1;
#X obj 675 595 s shortPress;
#X obj 895 254 bng 16 250 50 0 empty empty empty 0 -8 0 10 #fcfcfc #000000 #000000;
#X obj 908 292 s 1-reset_table_rcv;
#X text 18 2 this is for the one button one mic device;
#X obj 510 247 r 1-glitchbang;
#X msg 560 349 0;
#X obj 493 360 delay 100;
#X msg 493 381 1;
#X obj 18 245 spigot;
#X obj 186 54 r device;
#X obj 186 75 sel 0 1 2, f 15;
#X msg 167 125 1;
#X obj 121 241 spigot;
#X msg 199 126 0;
#X obj 274 194 spigot;
#X obj 580 110 r device;
#X obj 580 131 sel 0 1 2, f 15;
#X msg 561 181 1;
#X msg 593 182 0;
#X obj 762 120 spigot;
#X obj 513 483 s bela_digitalOut11;
#X obj 125 389 loadbang;
#X obj 213 577 s bela_setDigital;
#X msg 103 450 in 12;
#X msg 145 453 in 13;
#X msg 190 454 in 14;
#X msg 235 453 in 15;
#X msg 276 451 in 16;
#X msg 40 420 out 20;
#X msg 326 452 in 17;
#X msg 387 457 in 18;
#X msg 45 452 out 11;
#X obj 464 294 spigot;
#X msg 385 492 in 21;
#X obj 119 139 t b b;
#X msg 160 201 1;
#X connect 0 0 3 0;
#X connect 1 0 2 0;
#X connect 2 0 6 0;
#X connect 5 0 41 0;
#X connect 6 0 43 0;
#X connect 9 0 37 0;
#X connect 11 0 15 0;
#X connect 11 0 16 0;
#X connect 11 0 20 0;
#X connect 12 0 48 0;
#X connect 13 0 14 0;
#X connect 14 0 11 0;
#X connect 15 0 18 0;
#X connect 15 1 17 0;
#X connect 15 1 30 0;
#X connect 17 0 19 0;
#X connect 17 0 49 0;
#X connect 18 0 19 0;
#X connect 18 0 49 0;
#X connect 20 0 26 0;
#X connect 20 1 22 1;
#X connect 21 0 22 0;
#X connect 22 0 23 0;
#X connect 23 0 27 0;
#X connect 24 0 22 0;
#X connect 25 0 24 0;
#X connect 26 0 21 0;
#X connect 27 0 28 0;
#X connect 28 0 29 0;
#X connect 28 0 17 0;
#X connect 30 0 31 0;
#X connect 33 0 61 0;
#X connect 34 0 49 0;
#X connect 35 0 36 0;
#X connect 36 0 49 0;
#X connect 37 0 10 0;
#X connect 38 0 39 0;
#X connect 39 0 40 0;
#X connect 39 1 42 0;
#X connect 39 2 42 0;
#X connect 40 0 43 1;
#X connect 40 0 61 1;
#X connect 40 0 63 0;
#X connect 40 0 37 1;
#X connect 41 0 4 0;
#X connect 42 0 37 1;
#X connect 42 0 41 1;
#X connect 42 0 43 1;
#X connect 42 0 61 1;
#X connect 43 0 0 0;
#X connect 44 0 45 0;
#X connect 45 0 47 0;
#X connect 45 1 46 0;
#X connect 45 2 47 0;
#X connect 46 0 48 1;
#X connect 47 0 48 1;
#X connect 48 0 13 0;
#X connect 50 0 60 0;
#X connect 50 0 52 0;
#X connect 50 0 53 0;
#X connect 50 0 54 0;
#X connect 50 0 55 0;
#X connect 50 0 56 0;
#X connect 50 0 57 0;
#X connect 50 0 58 0;
#X connect 50 0 59 0;
#X connect 50 0 62 0;
#X connect 52 0 51 0;
#X connect 53 0 51 0;
#X connect 54 0 51 0;
#X connect 55 0 51 0;
#X connect 56 0 51 0;
#X connect 57 0 51 0;
#X connect 58 0 51 0;
#X connect 59 0 51 0;
#X connect 60 0 51 0;
#X connect 61 0 34 0;
#X connect 61 0 35 0;
#X connect 62 0 51 0;
#X connect 63 0 5 0;
#X connect 63 1 64 0;
#X connect 64 0 41 1;
#X restore 76 718 pd bela;
#X obj 337 723 vradio 16 1 1 4 device device_rcv which\ device 0 -8 0 10 #fcfcfc #000000 #000000 0;
#X text 363 721 memory box;
#X text 362 738 one button;
#X text 361 754 destroyer instrument;
#N canvas 626 119 775 571 presets 1;
#X obj 44 193 bng 16 250 50 0 empty empty empty 0 -8 0 10 #fcfcfc #000000 #000000;
#X obj 47 82 r device;
#X obj 47 103 sel 0 1 2, f 61;
#X obj 264 192 bng 16 250 50 0 empty empty empty 0 -8 0 10 #fcfcfc #000000 #000000;
#X obj 477 195 bng 16 250 50 0 empty empty empty 0 -8 0 10 #fcfcfc #000000 #000000;
#X msg 265 219 \; 1-glitch_on_rcv 1 \; 1-overwrite_on_rcv 1 \; 1-saving_on_rcv 1 \; 1-glitch_length_range_rcv 0.05 \; 1-glitch_height_range_rcv 0.8 \; 1-glitch-rate_rcv 0.01 \; 1-reset_table_rcv bang \; 1-rate_rcv 1 \; 1-rev_rcv 0 \;;
#X msg 478 222 \; 1-glitch_on_rcv 0 \; 1-overwrite_on_rcv 0 \; 1-saving_on_rcv 0 \; 1-glitch_length_range_rcv 0.05 \; 1-glitch_height_range_rcv 0.8 \; 1-glitch-rate_rcv 0.01 \; 1-reset_table_rcv bang \; 1-monostereo_rcv 1 \;;
#X msg 45 220 \; 1-glitch_on_rcv 1 \; 1-overwrite_on_rcv 1 \; 1-saving_on_rcv 1 \; 1-glitch_length_range_rcv 0.05 \; 1-glitch_height_range_rcv 0.4 \; 1-glitch-rate_rcv 0.01 \; 1-reset_table_rcv bang \; 1-rate_rcv 1 \; 1-rev_rcv 0 \; 1-playdestroy_rcv 0 \;;
#X connect 0 0 7 0;
#X connect 1 0 2 0;
#X connect 2 0 0 0;
#X connect 2 1 3 0;
#X connect 2 2 4 0;
#X connect 3 0 5 0;
#X connect 4 0 6 0;
#X restore 265 717 pd presets;
#N canvas 10 282 1340 563 bela_instrument 0;
#X obj 19 42 r 1-glitchbang;
#X obj 19 63 bng 16 250 50 0 empty empty empty 0 -8 0 10 #fcfcfc #000000 #000000;
#X text 500 313 autoglitch;
#X text 540 507 glitchspeed;
#X text 298 153 length;
#X text 299 376 height;
#X obj 1010 177 s 1-playdestroy_rcv;
#X obj 1107 337 s 1-overwrite_on_rcv;
#X obj 999 337 s 1-saving_on_rcv;
#X obj 888 238 s 1-glitchbang_rcv;
#X obj 761 205 s 1-reset_table_rcv;
#X obj 589 246 tgl 16 0 empty empty empty 0 -8 0 10 #fcfcfc #000000 #000000 0 1;
#X obj 589 274 s 1-record_sound_rcv;
#X obj 493 273 tgl 16 0 empty empty empty 0 -8 0 10 #fcfcfc #000000 #000000 0 1;
#X obj 493 294 s 1-glitch_on_rcv;
#X obj 296 133 s 1-glitch_length_range_rcv;
#X obj 308 342 s 1-glitch_height_range_rcv;
#X obj 586 451 s 1-glitch-rate_rcv;
#X obj 415 451 s bela_digitalOut20;
#X msg 416 429 1;
#X obj 415 408 loadbang;
#X obj 296 51 ys.snapshot;
#N canvas 150 175 450 300 instrument_select 0;
#X obj 134 25 r device;
#X obj 134 46 sel 0 1 2, f 15;
#X msg 115 96 1;
#X msg 147 97 0;
#X obj 40 147 spigot;
#X obj 48 36 inlet;
#X obj 40 168 outlet;
#X connect 0 0 1 0;
#X connect 1 0 3 0;
#X connect 1 1 3 0;
#X connect 1 2 2 0;
#X connect 2 0 4 1;
#X connect 3 0 4 1;
#X connect 4 0 6 0;
#X connect 5 0 4 0;
#X restore 294 75 pd instrument_select;
#X obj 303 281 ys.snapshot;
#N canvas 150 175 450 300 instrument_select 0;
#X obj 134 25 r device;
#X obj 134 46 sel 0 1 2, f 15;
#X msg 115 96 1;
#X msg 147 97 0;
#X obj 40 147 spigot;
#X obj 48 36 inlet;
#X obj 40 168 outlet;
#X connect 0 0 1 0;
#X connect 1 0 3 0;
#X connect 1 1 3 0;
#X connect 1 2 2 0;
#X connect 2 0 4 1;
#X connect 3 0 4 1;
#X connect 4 0 6 0;
#X connect 5 0 4 0;
#X restore 301 305 pd instrument_select;
#N canvas 150 175 450 300 instrument_select 0;
#X obj 134 25 r device;
#X obj 134 46 sel 0 1 2, f 15;
#X msg 115 96 1;
#X msg 147 97 0;
#X obj 40 147 spigot;
#X obj 48 36 inlet;
#X obj 40 168 outlet;
#X connect 0 0 1 0;
#X connect 1 0 3 0;
#X connect 1 1 3 0;
#X connect 1 2 2 0;
#X connect 2 0 4 1;
#X connect 3 0 4 1;
#X connect 4 0 6 0;
#X connect 5 0 4 0;
#X restore 574 411 pd instrument_select;
#X text 118 279 glitch LED;
#X text 104 362 ready light;
#X obj 1074 201 r bela_digitalIn12;
#N canvas 150 175 450 300 instrument_select 0;
#X obj 134 25 r device;
#X obj 134 46 sel 0 1 2, f 15;
#X msg 115 96 1;
#X msg 147 97 0;
#X obj 40 147 spigot;
#X obj 48 36 inlet;
#X obj 40 168 outlet;
#X connect 0 0 1 0;
#X connect 1 0 3 0;
#X connect 1 1 3 0;
#X connect 1 2 2 0;
#X connect 2 0 4 1;
#X connect 3 0 4 1;
#X connect 4 0 6 0;
#X connect 5 0 4 0;
#X restore 1071 304 pd instrument_select;
#N canvas 150 175 450 300 instrument_select 0;
#X obj 134 25 r device;
#X obj 134 46 sel 0 1 2, f 15;
#X msg 115 96 1;
#X msg 147 97 0;
#X obj 40 147 spigot;
#X obj 48 36 inlet;
#X obj 40 168 outlet;
#X connect 0 0 1 0;
#X connect 1 0 3 0;
#X connect 1 1 3 0;
#X connect 1 2 2 0;
#X connect 2 0 4 1;
#X connect 3 0 4 1;
#X connect 4 0 6 0;
#X connect 5 0 4 0;
#X restore 1020 128 pd instrument_select;
#N canvas 150 175 450 300 instrument_select 0;
#X obj 134 25 r device;
#X obj 134 46 sel 0 1 2, f 15;
#X msg 115 96 1;
#X msg 147 97 0;
#X obj 40 147 spigot;
#X obj 48 36 inlet;
#X obj 40 168 outlet;
#X connect 0 0 1 0;
#X connect 1 0 3 0;
#X connect 1 1 3 0;
#X connect 1 2 2 0;
#X connect 2 0 4 1;
#X connect 3 0 4 1;
#X connect 4 0 6 0;
#X connect 5 0 4 0;
#X restore 864 130 pd instrument_select;
#X obj 848 28 r bela_digitalIn13;
#X obj 896 183 change;
#X obj 894 206 sel 1;
#N canvas 150 175 450 300 instrument_select 0;
#X obj 134 25 r device;
#X obj 134 46 sel 0 1 2, f 15;
#X msg 115 96 1;
#X msg 147 97 0;
#X obj 40 147 spigot;
#X obj 48 36 inlet;
#X obj 40 168 outlet;
#X connect 0 0 1 0;
#X connect 1 0 3 0;
#X connect 1 1 3 0;
#X connect 1 2 2 0;
#X connect 2 0 4 1;
#X connect 3 0 4 1;
#X connect 4 0 6 0;
#X connect 5 0 4 0;
#X restore 716 102 pd instrument_select;
#X obj 762 160 change;
#X obj 762 181 sel 1;
#X obj 704 28 r bela_digitalIn14;
#N canvas 150 175 450 300 instrument_select 0;
#X obj 134 25 r device;
#X obj 134 46 sel 0 1 2, f 15;
#X msg 115 96 1;
#X msg 147 97 0;
#X obj 40 147 spigot;
#X obj 48 36 inlet;
#X obj 40 168 outlet;
#X connect 0 0 1 0;
#X connect 1 0 3 0;
#X connect 1 1 3 0;
#X connect 1 2 2 0;
#X connect 2 0 4 1;
#X connect 3 0 4 1;
#X connect 4 0 6 0;
#X connect 5 0 4 0;
#X restore 588 197 pd instrument_select;
#N canvas 150 175 450 300 instrument_select 0;
#X obj 134 25 r device;
#X obj 134 46 sel 0 1 2, f 15;
#X msg 115 96 1;
#X msg 147 97 0;
#X obj 40 147 spigot;
#X obj 48 36 inlet;
#X obj 40 168 outlet;
#X connect 0 0 1 0;
#X connect 1 0 3 0;
#X connect 1 1 3 0;
#X connect 1 2 2 0;
#X connect 2 0 4 1;
#X connect 3 0 4 1;
#X connect 4 0 6 0;
#X connect 5 0 4 0;
#X restore 495 118 pd instrument_select;
#X obj 1012 6 r bela_digitalIn15;
#X obj 589 144 r bela_digitalIn16;
#X obj 495 38 r bela_digitalIn17;
#X obj 799 468 s 1-rev_rcv;
#X obj 806 422 tgl 16 0 empty empty empty 0 -8 0 10 #fcfcfc #000000 #000000 0 1;
#N canvas 150 175 450 300 instrument_select 0;
#X obj 134 25 r device;
#X obj 134 46 sel 0 1 2, f 15;
#X msg 115 96 1;
#X msg 147 97 0;
#X obj 40 147 spigot;
#X obj 48 36 inlet;
#X obj 40 168 outlet;
#X connect 0 0 1 0;
#X connect 1 0 3 0;
#X connect 1 1 3 0;
#X connect 1 2 2 0;
#X connect 2 0 4 1;
#X connect 3 0 4 1;
#X connect 4 0 6 0;
#X connect 5 0 4 0;
#X restore 803 305 pd instrument_select;
#X obj 767 244 r bela_digitalIn18;
#X obj 942 472 s 1-rate_rcv;
#X obj 948 417 ys.snapshot;
#N canvas 150 175 450 300 instrument_select 0;
#X obj 134 25 r device;
#X obj 134 46 sel 0 1 2, f 15;
#X msg 115 96 1;
#X msg 147 97 0;
#X obj 40 147 spigot;
#X obj 48 36 inlet;
#X obj 40 168 outlet;
#X connect 0 0 1 0;
#X connect 1 0 3 0;
#X connect 1 1 3 0;
#X connect 1 2 2 0;
#X connect 2 0 4 1;
#X connect 3 0 4 1;
#X connect 4 0 6 0;
#X connect 5 0 4 0;
#X restore 946 441 pd instrument_select;
#X obj 1145 178 print playDestroy;
#X obj 681 311 print record;
#X obj 742 128 bela_debounce;
#X obj 880 158 bela_debounce;
#X obj 1012 56 sel 0 1;
#X msg 1011 84 1;
#X msg 1042 83 0;
#X obj 842 327 sel 0 1;
#X msg 841 384 1;
#X msg 872 383 0;
#X obj 510 164 sel 0 1;
#X msg 509 221 1;
#X msg 540 220 0;
#X obj 1115 258 sel 0 1;
#X msg 1110 282 1;
#X msg 1141 281 0;
#N canvas 150 175 450 300 instrument_select 0;
#X obj 134 25 r device;
#X obj 134 46 sel 0 1 2, f 15;
#X msg 115 96 1;
#X msg 147 97 0;
#X obj 40 147 spigot;
#X obj 48 36 inlet;
#X obj 40 168 outlet;
#X connect 0 0 1 0;
#X connect 1 0 3 0;
#X connect 1 1 3 0;
#X connect 1 2 2 0;
#X connect 2 0 4 1;
#X connect 3 0 4 1;
#X connect 4 0 6 0;
#X connect 5 0 4 0;
#X restore 30 104 pd instrument_select;
#X obj 47 127 bng 16 250 50 0 empty empty empty 0 -8 0 10 #fcfcfc #000000 #000000;
#X obj 44 189 delay 100;
#X obj 59 159 t b b;
#X obj 92 250 s bela_digitalOut11;
#X obj 138 220 tgl 16 0 empty empty empty 0 -8 0 10 #fcfcfc #000000 #000000 0 1;
#X obj 576 387 ys.snapshot 100;
#X obj 668 475 r 1-glitch-rate;
#X obj 486 91 bela_debounce 100;
#X obj 703 60 bela_debounce 100;
#X obj 845 73 bela_debounce 100;
#X obj 1050 27 bela_debounce 100;
#X obj 802 275 bela_debounce 100;
#X obj 1119 230 bela_debounce 100;
#X obj 594 174 bela_debounce 100;
#X obj 129 40 loadbang;
#X obj 947 357 adc~ 3, f 12;
#X obj 569 347 adc~ 4, f 12;
#X obj 296 242 adc~ 5, f 12;
#X obj 289 14 adc~ 6, f 12;
#X obj 1065 469 print rate;
#X obj 294 96 * 1.21;
#X obj 251 337 * 1.21;
#X obj 582 431 * 1.21;
#X obj 947 378 *~ 2.42;
#X obj 1175 100 loadbang;
#X msg 1175 121 1;
#X obj 878 405 loadbang;
#X msg 878 426 1;
#X obj 1232 258 loadbang;
#X msg 1232 279 1;
#X obj 456 203 loadbang;
#X msg 456 224 1;
#X msg 128 185 0;
#X msg 51 220 1;
#X obj 1182 28 bela_debounce 100;
#X obj 1144 7 r bela_digitalIn21;
#X connect 0 0 1 0;
#X connect 1 0 67 0;
#X connect 11 0 12 0;
#X connect 11 0 52 0;
#X connect 13 0 14 0;
#X connect 19 0 18 0;
#X connect 20 0 19 0;
#X connect 21 0 22 0;
#X connect 22 0 88 0;
#X connect 23 0 24 0;
#X connect 24 0 89 0;
#X connect 25 0 90 0;
#X connect 28 0 80 0;
#X connect 29 0 8 0;
#X connect 29 0 7 0;
#X connect 30 0 6 0;
#X connect 30 0 51 0;
#X connect 31 0 54 0;
#X connect 32 0 77 0;
#X connect 33 0 34 0;
#X connect 34 0 9 0;
#X connect 35 0 53 0;
#X connect 36 0 37 0;
#X connect 37 0 10 0;
#X connect 38 0 76 0;
#X connect 39 0 11 0;
#X connect 40 0 61 0;
#X connect 41 0 78 0;
#X connect 42 0 81 0;
#X connect 43 0 75 0;
#X connect 45 0 44 0;
#X connect 46 0 58 0;
#X connect 47 0 79 0;
#X connect 49 0 50 0;
#X connect 50 0 48 0;
#X connect 53 0 36 0;
#X connect 54 0 33 0;
#X connect 55 0 56 0;
#X connect 55 1 57 0;
#X connect 56 0 30 0;
#X connect 57 0 30 0;
#X connect 58 0 59 0;
#X connect 58 1 60 0;
#X connect 59 0 45 0;
#X connect 60 0 45 0;
#X connect 61 0 62 0;
#X connect 61 1 63 0;
#X connect 62 0 13 0;
#X connect 63 0 13 0;
#X connect 64 0 65 0;
#X connect 64 1 66 0;
#X connect 65 0 29 0;
#X connect 66 0 29 0;
#X connect 67 0 70 0;
#X connect 69 0 101 0;
#X connect 70 0 69 0;
#X connect 70 1 100 0;
#X connect 73 0 25 0;
#X connect 75 0 40 0;
#X connect 76 0 35 0;
#X connect 77 0 31 0;
#X connect 78 0 55 0;
#X connect 79 0 46 0;
#X connect 80 0 64 0;
#X connect 81 0 39 0;
#X connect 82 0 1 0;
#X connect 83 0 91 0;
#X connect 84 0 73 0;
#X connect 85 0 23 0;
#X connect 86 0 21 0;
#X connect 88 0 15 0;
#X connect 89 0 16 0;
#X connect 90 0 17 0;
#X connect 91 0 49 0;
#X connect 92 0 93 0;
#X connect 93 0 51 0;
#X connect 93 0 6 0;
#X connect 94 0 95 0;
#X connect 95 0 45 0;
#X connect 96 0 97 0;
#X connect 97 0 7 0;
#X connect 97 0 8 0;
#X connect 98 0 99 0;
#X connect 99 0 13 0;
#X connect 100 0 71 0;
#X connect 100 0 72 0;
#X connect 101 0 71 0;
#X connect 101 0 72 0;
#X connect 102 0 39 0;
#X connect 103 0 102 0;
#X restore 76 738 pd bela_instrument;
#X text 62 813 yann seznec / february 2024 / yannseznec.com;
#X text 359 771 octobox;
#N canvas 424 112 814 605 octobox_controller 0;
#X obj 25 13 ys.comport;
#X obj 50 243 r analog0;
#X obj 50 267 / 1024;
#X floatatom 50 291 5 0 0 0 - - - 0;
#X obj 28 91 r digital0;
#X obj 128 71 r digital1;
#X obj 275 96 r digital2;
#X obj 123 269 / 1024;
#X floatatom 123 293 5 0 0 0 - - - 0;
#X obj 123 245 r analog1;
#X floatatom 53 505 5 0 0 0 - - - 0;
#X obj 49 388 r analog4;
#X obj 196 271 / 1024;
#X floatatom 196 295 5 0 0 0 - - - 0;
#X obj 196 247 r analog2;
#X obj 269 452 / 1024;
#X floatatom 269 476 5 0 0 0 - - - 0;
#X obj 269 388 r analog7;
#X obj 124 453 / 1024;
#X floatatom 124 477 5 0 0 0 - - - 0;
#X obj 269 273 / 1024;
#X floatatom 269 297 5 0 0 0 - - - 0;
#X obj 269 249 r analog3;
#X obj 124 389 r analog5;
#X obj 190 454 / 1024;
#X floatatom 190 478 5 0 0 0 - - - 0;
#X obj 190 390 r analog6;
#X text 203 554 autoglitch;
#X obj 345 544 s 1-playdestroy_rcv;
#X obj 147 209 s 1-overwrite_on_rcv;
#X obj 39 209 s 1-saving_on_rcv;
#X obj 300 193 s 1-glitchbang_rcv;
#X obj 163 168 s 1-reset_table_rcv;
#X obj 435 151 tgl 16 0 empty empty empty 0 -8 0 10 #fcfcfc #000000 #000000 0 1;
#X obj 435 172 s 1-record_sound_rcv;
#X obj 35 143 tgl 16 0 empty empty empty 0 -8 0 10 #fcfcfc #000000 #000000 0 1;
#X obj 196 575 s 1-glitch_on_rcv;
#X obj 39 335 s 1-glitch_length_range_rcv;
#X obj 81 357 s 1-glitch_height_range_rcv;
#X obj 58 547 s 1-glitch-rate_rcv;
#X obj 32 123 sel 1;
#X obj 349 99 r digital3;
#X obj 425 101 r digital4;
#X obj 145 131 sel 1;
#X obj 295 139 sel 1;
#X text 146 14 control system for using my custom built serial/midi controller;
#X obj 336 520 change;
#X obj 198 540 change;
#X obj 128 92 tgl 16 0 empty empty empty 0 -8 0 10 #fcfcfc #000000 #000000 0 1;
#X obj 275 117 tgl 16 0 empty empty empty 0 -8 0 10 #fcfcfc #000000 #000000 0 1;
#X obj 349 120 tgl 16 0 empty empty empty 0 -8 0 10 #fcfcfc #000000 #000000 0 1;
#X obj 436 464 s 1-rate_rcv;
#X obj 452 217 s 1-rev_rcv;
#X obj 357 153 sel 1;
#X obj 50 414 / 4;
#X obj 50 435 i;
#X obj 53 481 / 256;
#X obj 327 499 > 0.1;
#X obj 200 515 > 0.01;
#X connect 1 0 2 0;
#X connect 2 0 3 0;
#X connect 3 0 37 0;
#X connect 4 0 40 0;
#X connect 5 0 48 0;
#X connect 6 0 49 0;
#X connect 7 0 8 0;
#X connect 8 0 38 0;
#X connect 9 0 7 0;
#X connect 10 0 39 0;
#X connect 10 0 58 0;
#X connect 11 0 54 0;
#X connect 12 0 13 0;
#X connect 14 0 12 0;
#X connect 15 0 16 0;
#X connect 16 0 57 0;
#X connect 17 0 15 0;
#X connect 18 0 19 0;
#X connect 19 0 51 0;
#X connect 20 0 21 0;
#X connect 22 0 20 0;
#X connect 23 0 18 0;
#X connect 24 0 25 0;
#X connect 26 0 24 0;
#X connect 33 0 34 0;
#X connect 35 0 30 0;
#X connect 35 0 29 0;
#X connect 40 0 35 0;
#X connect 41 0 50 0;
#X connect 42 0 33 0;
#X connect 43 0 32 0;
#X connect 44 0 31 0;
#X connect 46 0 28 0;
#X connect 47 0 36 0;
#X connect 48 0 43 0;
#X connect 49 0 44 0;
#X connect 50 0 53 0;
#X connect 53 0 52 0;
#X connect 54 0 55 0;
#X connect 55 0 56 0;
#X connect 56 0 10 0;
#X connect 57 0 46 0;
#X connect 58 0 47 0;
#X restore 191 738 pd octobox_controller;
#N canvas 124 259 1043 613 destroyer_midi 0;
#X text 26 119 length;
#X text 232 270 height;
#X obj 1052 381 s 1-playdestroy_rcv;
#X obj 908 405 s 1-overwrite_on_rcv;
#X obj 808 506 s 1-saving_on_rcv;
#X obj 708 282 s 1-glitchbang_rcv;
#X obj 649 336 s 1-reset_table_rcv;
#X obj 570 333 sel 0 1;
#X obj 568 378 tgl 16 0 empty empty empty 0 -8 0 10 #fcfcfc #000000 #000000 0 1;
#X obj 568 399 s 1-record_sound_rcv;
#X obj 474 353 sel 0 1;
#X obj 472 398 tgl 16 0 empty empty empty 0 -8 0 10 #fcfcfc #000000 #000000 0 1;
#X obj 472 419 s 1-glitch_on_rcv;
#X floatatom 331 131 5 0 127 0 - - - 0;
#X floatatom 248 198 5 0 0 0 - - - 0;
#X floatatom 25 38 5 0 0 0 - - - 0;
#X obj 25 91 s 1-glitch_length_range_rcv;
#X obj 240 280 s 1-glitch_height_range_rcv;
#X obj 320 242 s 1-glitch-rate_rcv;
#X obj 22 11 ctlin 50, f 12;
#X obj 25 70 / 127;
#X obj 245 166 ctlin 51;
#X obj 325 94 ctlin 52;
#X obj 258 247 / 127;
#X obj 520 73 notein, f 22;
#X obj 517 112 pack 0 0;
#X obj 502 195 > 0;
#X obj 502 216 change;
#X obj 574 195 > 0;
#X obj 574 216 change;
#X obj 646 196 > 0;
#X obj 646 217 change;
#X obj 718 196 > 0;
#X obj 718 217 change;
#X obj 791 199 > 0;
#X obj 791 220 change;
#X obj 863 200 > 0;
#X obj 863 221 change;
#X obj 935 200 > 0;
#X obj 935 221 change;
#X obj 513 164 route 60 61 62 63 64 65 66, f 65;
#X msg 472 377 0;
#X msg 504 378 1;
#X obj 708 261 sel 1;
#X obj 649 288 sel 1;
#X obj 783 370 sel 0 1;
#X msg 781 394 1;
#X msg 813 395 0;
#X obj 781 415 tgl 16 0 empty empty empty 0 -8 0 10 #fcfcfc #000000 #000000 0 1;
#X obj 908 327 sel 0 1;
#X msg 906 351 1;
#X msg 938 352 0;
#X obj 906 372 tgl 16 0 empty empty empty 0 -8 0 10 #fcfcfc #000000 #000000 0 1;
#X obj 1043 306 sel 0 1;
#X msg 1041 330 1;
#X msg 1073 331 0;
#X obj 1041 351 tgl 16 0 empty empty empty 0 -8 0 10 #fcfcfc #000000 #000000 0 1;
#X obj 636 381 print record;
#X msg 568 357 0;
#X msg 600 357 1;
#X obj 73 446 noteout;
#X msg 49 360 60 \$1;
#X obj 53 331 tgl 16 0 empty empty empty 0 -8 0 10 #fcfcfc #000000 #000000 0 1;
#X obj 70 176 r 1-glitchbang;
#X msg 51 267 1;
#X msg 88 298 0;
#X obj 343 199 + 1;
#X obj 85 268 delay 50;
#X obj 57 224 t b b;
#X obj 837 464 print save;
#X obj 326 165 / 127;
#X text 249 19 MIDI control system for the destroyer instrument only \, currently. will likely change this to direct Bela control;
#X text 85 398 disconnected because of bela printing;
#X connect 7 0 58 0;
#X connect 7 1 59 0;
#X connect 8 0 9 0;
#X connect 8 0 57 0;
#X connect 10 0 41 0;
#X connect 10 1 42 0;
#X connect 11 0 12 0;
#X connect 13 0 70 0;
#X connect 14 0 23 0;
#X connect 15 0 20 0;
#X connect 20 0 16 0;
#X connect 23 0 17 0;
#X connect 24 1 25 1;
#X connect 25 0 40 0;
#X connect 26 0 27 0;
#X connect 27 0 10 0;
#X connect 28 0 29 0;
#X connect 29 0 7 0;
#X connect 30 0 31 0;
#X connect 31 0 44 0;
#X connect 32 0 33 0;
#X connect 33 0 43 0;
#X connect 34 0 35 0;
#X connect 35 0 45 0;
#X connect 36 0 37 0;
#X connect 37 0 49 0;
#X connect 38 0 39 0;
#X connect 39 0 53 0;
#X connect 40 0 26 0;
#X connect 40 1 28 0;
#X connect 40 2 30 0;
#X connect 40 3 32 0;
#X connect 40 4 34 0;
#X connect 40 5 36 0;
#X connect 40 6 38 0;
#X connect 41 0 11 0;
#X connect 42 0 11 0;
#X connect 43 0 5 0;
#X connect 44 0 6 0;
#X connect 45 0 46 0;
#X connect 45 1 47 0;
#X connect 46 0 48 0;
#X connect 47 0 48 0;
#X connect 48 0 4 0;
#X connect 48 0 69 0;
#X connect 49 0 50 0;
#X connect 49 1 51 0;
#X connect 50 0 52 0;
#X connect 51 0 52 0;
#X connect 52 0 3 0;
#X connect 53 0 54 0;
#X connect 53 1 55 0;
#X connect 54 0 56 0;
#X connect 55 0 56 0;
#X connect 56 0 2 0;
#X connect 58 0 8 0;
#X connect 59 0 8 0;
#X connect 62 0 61 0;
#X connect 63 0 68 0;
#X connect 64 0 62 0;
#X connect 65 0 62 0;
#X connect 67 0 65 0;
#X connect 68 0 64 0;
#X connect 68 1 67 0;
#X connect 70 0 66 0;
#X connect 70 0 18 0;
#X restore 126 718 pd destroyer_midi 1230;
#X obj 51 16 ys.memory_loss_stereo 1 export.wav;
#X text 472 21 this version is mainly for use with Bela board;
#X connect 12 0 0 0;
#X connect 12 1 0 1;
