#N canvas 364 25 879 594 10;
#X obj 60 472 dac~, f 7;
#X obj 70 17 ys.memory_loss 1;
#X obj 535 99 metro 1000;
#X obj 532 64 loadbang;
#X obj 535 120 s 1-playdestroy_rcv;
#X obj 615 42 bng 16 250 50 0 empty empty empty 0 -8 0 10 #fcfcfc #000000 #000000;
#X obj 539 240 loadbang;
#X msg 539 261 \; pd dsp 1;
#X connect 1 0 0 0;
#X connect 1 0 0 1;
#X connect 2 0 4 0;
#X connect 3 0 2 0;
#X connect 5 0 2 0;
#X connect 6 0 7 0;
