#N canvas 364 25 879 594 10;
#X obj 60 472 dac~, f 7;
#X obj 70 17 ys.memory_loss 1;
#X obj 539 240 loadbang;
#X msg 539 318 \; pd dsp 1;
#X obj 567 25 netreceive -u -b -f 2222;
#X obj 566 68 oscparse -f;
#X obj 565 95 list trim;
#X floatatom 564 154 5 0 0 0 - - - 0;
#X obj 564 130 route buttonPress1;
#X obj 563 182 change;
#X obj 567 211 s 1-playdestroy_rcv;
#X obj 674 276 print button1;
#X obj 544 273 delay 2000;
#X obj 694 127 route buttonPress2;
#X floatatom 698 172 5 0 0 0 - - - 0;
#X obj 697 200 change;
#X obj 718 256 s 1-glitchbang_rcv;
#X obj 707 232 sel 1;
#X connect 1 0 0 0;
#X connect 1 0 0 1;
#X connect 2 0 12 0;
#X connect 4 0 5 0;
#X connect 5 0 6 0;
#X connect 6 0 8 0;
#X connect 7 0 9 0;
#X connect 8 0 7 0;
#X connect 9 0 10 0;
#X connect 12 0 3 0;
#X connect 13 0 14 0;
#X connect 14 0 15 0;
#X connect 15 0 17 0;
#X connect 17 0 16 0;
