#N canvas 208 233 1111 586 12;
#X obj 248 160 timer;
#X obj 243 105 sel 1 0;
#X floatatom 248 181 7 0 0 0 - - - 0;
#X obj 199 287 adc~;
#X msg 241 270 \$1 5;
#X obj 241 291 line~;
#X obj 244 318 *~;
#X obj 157 365 tabwrite~ \$0-sound-L;
#X obj 170 53 r \$1-record_sound;
#X obj 317 212 array size \$0-sound-L;
#X msg 315 170 441000;
#X msg 303 126 tempo 1 samp;
#X obj 303 100 loadbang;
#X obj 252 213 t b;
#X obj 231 184 bng 15 250 50 0 empty empty empty 17 7 0 10 #fcfcfc #000000 #000000;
#X obj 252 234 s \$0-getSize;
#X msg 95 226 stop, f 8;
#X obj 171 228 bng 15 250 50 0 empty empty empty 17 7 0 10 #fcfcfc #000000 #000000;
#X text 365 169 max sample length - hard coded to 10s at 44.1khz;
#X text 551 192 (this is arbitrary);
#X connect 0 0 2 0;
#X connect 1 0 0 0;
#X connect 1 0 10 0;
#X connect 1 0 17 0;
#X connect 1 1 0 1;
#X connect 1 1 16 0;
#X connect 2 0 9 0;
#X connect 2 0 13 0;
#X connect 3 0 6 0;
#X connect 4 0 5 0;
#X connect 5 0 6 1;
#X connect 6 0 7 0;
#X connect 8 0 4 0;
#X connect 8 0 1 0;
#X connect 10 0 9 0;
#X connect 11 0 0 0;
#X connect 12 0 11 0;
#X connect 13 0 15 0;
#X connect 14 0 2 0;
#X connect 16 0 7 0;
#X connect 17 0 7 0;
