#N canvas 92 117 981 681 12;
#X obj 252 910 tabwrite \$0-wavetable-full;
#X obj 36 257 r \$1-glitch-length-range;
#X obj 541 202 r \$0-wavetable_samples;
#X obj 470 397 r \$1-glitch-height-range;
#X obj 204 152 inlet;
#X obj 544 592 random 44100;
#X floatatom 547 631 5 0 0 0 - - - 0;
#X floatatom 147 466 5 0 0 0 - - - 0;
#X obj 152 535 until;
#X obj 148 603 +;
#X floatatom 148 627 5 0 0 0 - - - 0;
#X obj 160 493 t f b;
#X msg 220 537 0;
#X msg 150 572 1;
#X obj 396 758 +;
#X floatatom 396 782 5 0 0 0 - - - 0;
#X text 587 628 start point;
#X obj 207 180 bng 19 250 50 0 empty empty empty 0 -10 0 12 #fcfcfc #000000 #000000;
#X obj 403 484 / 100;
#X obj 212 424 t f f;
#X obj 208 203 t b b b b b, f 44;
#X obj 245 721 /;
#X obj 206 333 random 5000;
#X floatatom 403 550 5 0 0 0 - - - 0;
#X obj 403 520 + 0.05;
#X text 280 312 set random length;
#X obj 210 394 + 500;
#X obj 265 802 + 0.5;
#X text 469 491 1 set random slope;
#X obj 372 367 random 100;
#X obj 372 391 / 100;
#X obj 313 884 sel 1;
#X obj 280 836 >= 0.99;
#X obj 346 838 <= 0.01;
#X obj 243 756 *;
#X obj 399 629 random 2;
#X obj 359 717 *;
#X msg 391 677 1;
#X msg 428 680 -1;
#X obj 399 653 sel 0 1;
#X obj 398 596 t f b;
#X obj 270 355 * 5000;
#X obj 403 460 random 100;
#X obj 467 426 * 100;
#X obj 541 223 / 10;
#X obj 267 285 * 4410;
#X text 89 61 not using this anymore because it seems to actually perform worse (which was surprising to me \, as a moron);
#X connect 1 0 45 0;
#X connect 2 0 5 1;
#X connect 2 0 44 0;
#X connect 3 0 43 0;
#X connect 4 0 17 0;
#X connect 5 0 6 0;
#X connect 6 0 14 1;
#X connect 7 0 11 0;
#X connect 8 0 13 0;
#X connect 9 0 10 0;
#X connect 10 0 9 1;
#X connect 10 0 14 0;
#X connect 10 0 21 0;
#X connect 11 0 8 0;
#X connect 11 1 12 0;
#X connect 12 0 10 0;
#X connect 13 0 9 0;
#X connect 14 0 15 0;
#X connect 15 0 0 1;
#X connect 17 0 20 0;
#X connect 18 0 24 0;
#X connect 19 0 7 0;
#X connect 19 1 21 1;
#X connect 20 1 22 0;
#X connect 20 2 29 0;
#X connect 20 3 42 0;
#X connect 20 4 5 0;
#X connect 21 0 34 0;
#X connect 22 0 26 0;
#X connect 23 0 40 0;
#X connect 24 0 23 0;
#X connect 26 0 19 0;
#X connect 27 0 33 0;
#X connect 27 0 32 0;
#X connect 27 0 0 0;
#X connect 29 0 30 0;
#X connect 30 0 27 1;
#X connect 31 0 8 1;
#X connect 32 0 31 0;
#X connect 33 0 31 0;
#X connect 34 0 27 0;
#X connect 35 0 39 0;
#X connect 36 0 34 1;
#X connect 37 0 36 1;
#X connect 38 0 36 1;
#X connect 39 0 37 0;
#X connect 39 1 38 0;
#X connect 40 0 36 0;
#X connect 40 1 35 0;
#X connect 41 0 26 1;
#X connect 42 0 18 0;
#X connect 43 0 42 1;
#X connect 44 0 45 1;
#X connect 45 0 22 1;
