#N canvas 404 25 908 657 12;
#X obj 44 223 list prepend;
#X obj 44 245 list trim;
#X msg 28 71 devices;
#X msg 156 129 close;
#X msg 100 68 open 2;
#X floatatom 52 315 5 0 0 0 - - - 0;
#X floatatom 120 318 5 0 0 0 - - - 0;
#X obj 33 33 loadbang;
#X msg 101 40 open 1;
#X floatatom 162 315 5 0 0 0 - - - 0;
#X floatatom 265 322 5 0 0 0 - - - 0;
#X msg 223 135 72;
#X msg 253 135 76;
#X obj 223 112 sel 1 0;
#X obj 246 79 tgl 15 0 empty empty empty 17 7 0 10 #fcfcfc #000000 #000000 0 1;
#X obj 44 201 serial_print any;
#X obj 246 25 r dsp_on_bang;
#X msg 248 50 1;
#X obj 313 92 r loop_light;
#X obj 44 179 comport 0 9600;
#X msg 111 102 open 3;
#X obj 192 77 loadbang;
#X obj 49 346 s analog0;
#X obj 120 349 s analog1;
#X obj 165 387 s analog2;
#X msg 158 38 open 0;
#X obj 257 355 s digital0;
#X obj 336 390 s digital1;
#X obj 52 284 route analog0 analog1 analog2 digital0 digital1 digital2 digital3 digital4 digital5 digital6, f 112;
#X floatatom 334 322 5 0 0 0 - - - 0;
#X floatatom 432 328 5 0 0 0 - - - 0;
#X floatatom 501 328 5 0 0 0 - - - 0;
#X obj 424 361 s digital2;
#X obj 499 410 s digital3;
#X floatatom 585 333 5 0 0 0 - - - 0;
#X floatatom 683 339 5 0 0 0 - - - 0;
#X floatatom 752 339 5 0 0 0 - - - 0;
#X obj 587 367 s digital4;
#X obj 675 372 s digital5;
#X obj 754 373 s digital6;
#X text 334 421 record;
#X text 493 436 glitch;
#X text 261 380 autoglitch;
#X text 582 398 setting1;
#X text 676 403 setting2;
#X text 757 397 play;
#X text 423 384 reset table;
#X text 167 409 glitchspeed;
#X text 43 377 length;
#X text 112 381 height;
#X msg 283 185 pollintervall 20;
#X obj 345 133 loadbang;
#X text 451 53 this should be a good way to do high resolution analog input on a raspberry pi. i am currently struggling with getting this patch running well on a pi at all \, though \, so who knows;
#X connect 0 0 1 0;
#X connect 1 0 28 0;
#X connect 2 0 19 0;
#X connect 3 0 19 0;
#X connect 4 0 19 0;
#X connect 5 0 22 0;
#X connect 6 0 23 0;
#X connect 7 0 2 0;
#X connect 8 0 19 0;
#X connect 9 0 24 0;
#X connect 10 0 26 0;
#X connect 11 0 19 0;
#X connect 12 0 19 0;
#X connect 13 0 11 0;
#X connect 13 1 12 0;
#X connect 14 0 13 0;
#X connect 15 0 0 0;
#X connect 15 1 0 1;
#X connect 16 0 17 0;
#X connect 17 0 14 0;
#X connect 18 0 14 0;
#X connect 19 0 15 0;
#X connect 20 0 19 0;
#X connect 21 0 25 0;
#X connect 25 0 19 0;
#X connect 28 0 5 0;
#X connect 28 1 6 0;
#X connect 28 2 9 0;
#X connect 28 3 10 0;
#X connect 28 4 29 0;
#X connect 28 5 30 0;
#X connect 28 6 31 0;
#X connect 28 7 34 0;
#X connect 28 8 35 0;
#X connect 28 9 36 0;
#X connect 29 0 27 0;
#X connect 30 0 32 0;
#X connect 31 0 33 0;
#X connect 34 0 37 0;
#X connect 35 0 38 0;
#X connect 36 0 39 0;
#X connect 50 0 19 0;
#X connect 51 0 50 0;
