#N canvas 244 378 996 494 12;
#X obj 74 14 netreceive -u -b -f 2222;
#X obj 73 57 oscparse -f;
#X obj 72 84 list trim;
#X floatatom 71 143 5 0 0 0 - - - 0;
#X obj 71 119 route buttonPress1;
#X obj 70 171 change;
#X obj 74 200 s 1-playdestroy_rcv;
#X obj 206 203 print button1;
#X obj 328 70 osc~ 300;
#X obj 328 118 dac~;
#X obj 328 94 *~ 0.3;
#X obj 539 240 loadbang;
#X msg 539 318 \; pd dsp 1;
#X obj 544 273 delay 2000;
#X connect 0 0 1 0;
#X connect 1 0 2 0;
#X connect 2 0 4 0;
#X connect 3 0 5 0;
#X connect 4 0 3 0;
#X connect 5 0 6 0;
#X connect 5 0 7 0;
#X connect 8 0 10 0;
#X connect 10 0 9 0;
#X connect 10 0 9 1;
#X connect 11 0 13 0;
#X connect 13 0 12 0;
