#N canvas 278 49 1126 766 12;
#X obj 154 29 inlet;
#X obj 328 670 outlet;
#X obj 240 663 outlet~;
#X obj 236 590 pack 0 0;
#X obj 224 102 bng 15 250 50 0 empty empty empty 17 7 0 10 #fcfcfc #000000 #000000;
#X floatatom 291 325 5 0 0 0 - - - 0;
#X obj 233 626 line~;
#X msg 44 357 start \$1;
#X obj 333 613 delay;
#X msg 336 587 \$1;
#X msg 333 635 stop;
#X obj 291 303 random 100;
#X obj 44 313 random 44100;
#X obj 331 160 i;
#X obj 330 188 * 0.08;
#X floatatom 330 209 5 0 0 0 - - - 0;
#X floatatom 44 334 5 0 0 0 - - - 0;
#X text 220 495 table glitch start value (y);
#X text 536 752 table glitch end value (y);
#X text 328 324 glitch length ms;
#X obj 226 140 t b b b b b;
#X obj 245 540 f;
#X obj 434 137 t b f;
#X floatatom 433 96 5 0 0 0 - - - 0;
#X obj 432 63 r \$2-glitch-length-range;
#X obj 477 253 r \$2-glitch-height-range;
#X obj 250 53 r \$2-glitchbang;
#X obj 284 82 r \$1-wavetable_samples;
#X obj 308 129 / 44.1;
#X obj 112 282 r \$1-wavetable_samples;
#X obj 733 50 bng 16 250 50 0 empty empty empty 0 -8 0 10 #fcfcfc #000000 #000000;
#X obj 733 71 t b b b b;
#X msg 778 104 0;
#X obj 769 141 line~;
#X obj 745 174 tabwrite~ \$1-wavetable-full;
#X msg 721 106 1 1000;
#X obj 733 29 r \$2-reset_all;
#X text 828 394 forward/backwards;
#X obj 177 454 random 100;
#X obj 177 475 / 100;
#X obj 184 407 bng 16 250 50 0 empty empty empty 0 -8 0 10 #fcfcfc #000000 #000000;
#X obj 168 353 t b;
#X floatatom 177 496 5 0 0 0 - - - 0;
#X obj 499 416 / 100;
#X obj 477 355 bng 19 250 50 0 empty empty empty 0 -10 0 12 #fcfcfc #000000 #000000;
#X obj 504 517 *;
#X floatatom 591 394 5 0 0 0 - - - 0;
#X floatatom 493 621 5 0 0 0 - - - 0;
#X obj 498 676 +;
#X obj 497 650 t b f;
#X floatatom 491 752 5 0 0 0 - - - 0;
#X obj 496 708 clip 0 1;
#X text 603 332 this version does not attempt to match up with current wavetable location and glitch from there. is this better? maybe it makes no difference either way;
#X obj 675 435 random 2;
#X obj 675 459 sel 0 1;
#X msg 666 502 1;
#X msg 702 503 -1;
#X obj 495 566 *;
#X obj 509 366 t b b;
#X floatatom 499 464 5 0 0 0 - - - 0;
#X obj 499 392 random 80;
#X obj 499 440 + 0.2;
#X connect 0 0 4 0;
#X connect 3 0 6 0;
#X connect 4 0 20 0;
#X connect 5 0 3 1;
#X connect 5 0 9 0;
#X connect 6 0 2 0;
#X connect 7 0 1 0;
#X connect 8 0 10 0;
#X connect 9 0 8 0;
#X connect 10 0 1 0;
#X connect 11 0 5 0;
#X connect 12 0 16 0;
#X connect 13 0 14 0;
#X connect 14 0 15 0;
#X connect 15 0 11 1;
#X connect 16 0 7 0;
#X connect 16 0 41 0;
#X connect 20 1 21 0;
#X connect 20 2 12 0;
#X connect 20 3 11 0;
#X connect 20 4 44 0;
#X connect 21 0 3 0;
#X connect 22 0 14 0;
#X connect 22 1 14 1;
#X connect 23 0 22 0;
#X connect 24 0 23 0;
#X connect 25 0 46 0;
#X connect 26 0 4 0;
#X connect 27 0 28 0;
#X connect 28 0 13 0;
#X connect 29 0 12 1;
#X connect 30 0 31 0;
#X connect 31 1 35 0;
#X connect 31 2 34 0;
#X connect 31 3 32 0;
#X connect 32 0 33 0;
#X connect 33 0 34 0;
#X connect 35 0 33 0;
#X connect 36 0 30 0;
#X connect 38 0 39 0;
#X connect 39 0 42 0;
#X connect 40 0 38 0;
#X connect 41 0 40 0;
#X connect 42 0 6 0;
#X connect 42 0 48 0;
#X connect 43 0 61 0;
#X connect 44 0 58 0;
#X connect 45 0 57 0;
#X connect 46 0 45 1;
#X connect 47 0 49 0;
#X connect 48 0 51 0;
#X connect 49 0 48 0;
#X connect 49 1 48 1;
#X connect 50 0 21 1;
#X connect 51 0 50 0;
#X connect 53 0 54 0;
#X connect 54 0 55 0;
#X connect 54 1 56 0;
#X connect 55 0 57 1;
#X connect 56 0 57 1;
#X connect 57 0 47 0;
#X connect 58 0 60 0;
#X connect 58 1 53 0;
#X connect 59 0 45 0;
#X connect 60 0 43 0;
#X connect 61 0 59 0;
