#N canvas 388 121 1156 801 10;
#X obj 154 29 inlet;
#X obj 328 670 outlet;
#X obj 240 663 outlet~;
#X obj 236 590 pack 0 0;
#X obj 224 102 bng 15 250 50 0 empty empty empty 17 7 0 10 #fcfcfc #000000 #000000;
#X floatatom 291 325 5 0 0 0 - - - 0;
#X obj 233 626 line~;
#X msg 44 357 start \$1;
#X obj 333 613 delay;
#X msg 336 587 \$1;
#X msg 333 635 stop;
#X obj 291 303 random 100;
#X obj 44 313 random 44100;
#X obj 331 160 i;
#X obj 330 188 * 0.08;
#X floatatom 330 209 5 0 0 0 - - - 0;
#X floatatom 44 334 5 0 0 0 - - - 0;
#X text 410 432 table glitch start value (y);
#X text 586 531 table glitch end value (y);
#X text 328 324 glitch length ms;
#X obj 226 140 t b b b b b;
#X floatatom 377 434 5 0 0 0 - - - 0;
#X obj 678 344 random 300;
#X obj 685 311 bng 15 250 50 0 empty empty empty 17 7 0 10 #fcfcfc #000000 #000000;
#X obj 678 365 + 50;
#X obj 678 386 / 1000;
#X floatatom 678 407 5 0 0 0 - - - 0;
#X obj 766 341 random 2;
#X obj 766 362 sel 0 1;
#X msg 758 393 1;
#X obj 697 484 *;
#X obj 735 278 t b b;
#X obj 733 245 bng 15 250 50 0 empty empty empty 17 7 0 10 #fcfcfc #000000 #000000;
#X floatatom 697 505 5 0 0 0 - - - 0;
#X obj 548 512 +;
#X floatatom 548 533 5 0 0 0 - - - 0;
#X obj 245 540 f;
#X obj 434 137 t b f;
#X floatatom 433 96 5 0 0 0 - - - 0;
#X floatatom 542 301 5 0 0 0 - - - 0;
#X obj 503 558 clip 0 1;
#X obj 432 63 r \$2-glitch-length-range;
#X obj 542 280 r \$2-glitch-height-range;
#X obj 250 53 r \$2-glitchbang;
#X obj 377 413 tabread \$1-wavetable-full;
#X obj 284 82 r \$1-wavetable_samples;
#X obj 308 129 / 44.1;
#X obj 112 282 r \$1-wavetable_samples;
#X text 338 379 so that the glitches start from existing wave (is this necessary?);
#X obj 733 50 bng 16 250 50 0 empty empty empty 0 -8 0 10 #fcfcfc #000000 #000000;
#X obj 733 71 t b b b b;
#X msg 778 104 0;
#X obj 769 141 line~;
#X obj 745 174 tabwrite~ \$1-wavetable-full;
#X msg 721 106 1 1000;
#X obj 733 29 r \$2-reset_all;
#X text 828 394 forward/backwards;
#X msg 786 393 -1;
#X connect 0 0 4 0;
#X connect 3 0 6 0;
#X connect 4 0 20 0;
#X connect 5 0 3 1;
#X connect 5 0 9 0;
#X connect 6 0 2 0;
#X connect 7 0 1 0;
#X connect 8 0 10 0;
#X connect 9 0 8 0;
#X connect 10 0 1 0;
#X connect 11 0 5 0;
#X connect 12 0 16 0;
#X connect 13 0 14 0;
#X connect 14 0 15 0;
#X connect 15 0 11 1;
#X connect 16 0 7 0;
#X connect 16 0 44 0;
#X connect 20 1 36 0;
#X connect 20 2 12 0;
#X connect 20 3 11 0;
#X connect 20 4 32 0;
#X connect 21 0 34 0;
#X connect 21 0 6 0;
#X connect 22 0 24 0;
#X connect 23 0 22 0;
#X connect 24 0 25 0;
#X connect 25 0 26 0;
#X connect 26 0 30 0;
#X connect 27 0 28 0;
#X connect 28 0 29 0;
#X connect 28 1 57 0;
#X connect 29 0 30 1;
#X connect 30 0 33 0;
#X connect 31 0 23 0;
#X connect 31 1 27 0;
#X connect 32 0 31 0;
#X connect 33 0 34 1;
#X connect 34 0 35 0;
#X connect 35 0 40 0;
#X connect 36 0 3 0;
#X connect 37 0 14 0;
#X connect 37 1 14 1;
#X connect 38 0 37 0;
#X connect 40 0 36 1;
#X connect 41 0 38 0;
#X connect 42 0 22 1;
#X connect 42 0 39 0;
#X connect 43 0 4 0;
#X connect 44 0 21 0;
#X connect 45 0 46 0;
#X connect 46 0 13 0;
#X connect 47 0 12 1;
#X connect 49 0 50 0;
#X connect 50 1 54 0;
#X connect 50 2 53 0;
#X connect 50 3 51 0;
#X connect 51 0 52 0;
#X connect 52 0 53 0;
#X connect 54 0 52 0;
#X connect 55 0 49 0;
#X connect 57 0 30 1;
