#N canvas 411 101 988 697 10;
#X obj 52 574 outlet~;
#X obj 164 201 phasor~;
#X floatatom 164 96 5 0 0 0 - - - 0;
#X obj 164 74 expr 1/$f1;
#X obj 47 528 *~;
#X obj 63 427 line~;
#X obj 66 138 t f b;
#X msg 97 169 0;
#X obj 238 378 spigot;
#X obj 250 60 r \$1-pitch;
#X floatatom 251 90 5 0 0 0 - - - 0;
#X obj 50 482 tabread4~ \$1-sound-L;
#X obj 163 125 sig~;
#X msg 256 120 \$1 20;
#X obj 256 142 line~;
#X obj 164 153 *~;
#X obj 63 405 pack 0 20;
#X obj 112 378 r \$1-envelope;
#X obj 234 336 ys.snapshot 10;
#X obj 246 407 s \$1-currentloc-L;
#X obj 577 419 spigot;
#X obj 573 359 ys.snapshot 10;
#X obj 583 449 s \$1-currentloc-clock;
#X obj 404 384 samphold~;
#X obj 404 409 ys.snapshot 10;
#X floatatom 404 431 5 0 0 0 - - - 0;
#X obj 403 451 change;
#X floatatom 403 473 5 0 0 0 - - - 0;
#X obj 547 584 s \$1-loopbang;
#X obj 403 492 t b;
#X obj 457 530 spigot;
#X obj 480 358 *~;
#X obj 574 549 sel 0;
#X obj 475 584 bng 15 250 50 0 empty empty empty 17 7 0 10 #fcfcfc
#000000 #000000;
#X obj 403 355 osc~ 10;
#X obj 61 109 r \$1-playdestroy;
#X obj 278 356 r \$1-playdestroy;
#X obj 498 295 r \$1-playdestroy;
#X obj 497 508 r \$1-playdestroy;
#X obj 617 397 r \$1-playdestroy;
#X obj 81 286 tabread4~ \$1-wavetable-full;
#X obj 106 237 *~;
#X obj 228 202 r \$1-wavetable_samples;
#X obj 160 50 /;
#X floatatom 164 27 5 0 0 0 - - - 0;
#X floatatom 319 31 5 0 0 0 - - - 0;
#X obj 319 10 r \$1-samplerate;
#X obj 164 6 r \$1-sample_samples;
#X obj 165 439 *~;
#X obj 199 428 r \$1-sample_samples;
#X obj 201 530 ys.snapshot 10;
#X floatatom 201 551 24 0 0 0 - - - 0;
#X connect 1 0 21 0;
#X connect 1 0 31 0;
#X connect 1 0 41 0;
#X connect 2 0 12 0;
#X connect 3 0 2 0;
#X connect 4 0 0 0;
#X connect 5 0 4 1;
#X connect 6 0 16 0;
#X connect 6 1 7 0;
#X connect 7 0 1 1;
#X connect 8 0 19 0;
#X connect 9 0 10 0;
#X connect 10 0 13 0;
#X connect 11 0 4 0;
#X connect 12 0 15 0;
#X connect 13 0 14 0;
#X connect 14 0 15 1;
#X connect 15 0 1 0;
#X connect 15 0 50 0;
#X connect 16 0 5 0;
#X connect 17 0 16 1;
#X connect 18 0 8 0;
#X connect 20 0 22 0;
#X connect 21 0 20 0;
#X connect 23 0 24 0;
#X connect 24 0 25 0;
#X connect 25 0 26 0;
#X connect 26 0 27 0;
#X connect 27 0 29 0;
#X connect 29 0 30 0;
#X connect 30 0 28 0;
#X connect 30 0 33 0;
#X connect 31 0 23 1;
#X connect 32 0 28 0;
#X connect 34 0 23 0;
#X connect 35 0 6 0;
#X connect 36 0 8 1;
#X connect 37 0 31 1;
#X connect 38 0 30 1;
#X connect 38 0 32 0;
#X connect 39 0 20 1;
#X connect 40 0 18 0;
#X connect 40 0 48 0;
#X connect 41 0 40 0;
#X connect 42 0 41 1;
#X connect 43 0 3 0;
#X connect 46 0 43 1;
#X connect 46 0 45 0;
#X connect 47 0 43 0;
#X connect 47 0 44 0;
#X connect 48 0 11 0;
#X connect 49 0 48 1;
#X connect 50 0 51 0;
