#N canvas 63 88 571 413 12;
#X msg 150 215 1;
#X obj 152 189 until;
#X obj 150 239 +;
#X floatatom 232 257 12 0 0 0 - - - 0;
#X obj 162 106 t b b;
#X msg 198 139 0;
#X obj 160 84 bng 19 250 50 0 empty empty empty 0 -10 0 12 #fcfcfc #000000 #000000;
#X obj 149 298 t f f;
#X obj 124 328 / 44100;
#X obj 109 152 i;
#X obj 150 62 inlet;
#X obj 71 400 tabwrite \$0-wavetable-full;
#X floatatom 269 151 5 0 0 0 - - - 0;
#X obj 256 105 r \$0-wavetable_samples;
#X obj 238 311 r \$0-wavetable_samples;
#X text 61 23 not using this anymore because it seems to actually perform worse (which was surprising to me \, as a moron);
#X connect 0 0 2 0;
#X connect 1 0 0 0;
#X connect 2 0 3 0;
#X connect 3 0 2 1;
#X connect 3 0 7 0;
#X connect 4 0 9 0;
#X connect 4 1 5 0;
#X connect 5 0 3 0;
#X connect 6 0 4 0;
#X connect 7 0 8 0;
#X connect 7 1 11 1;
#X connect 8 0 11 0;
#X connect 9 0 1 0;
#X connect 10 0 6 0;
#X connect 13 0 9 1;
#X connect 13 0 12 0;
#X connect 14 0 8 1;
