#N canvas 57 25 1160 662 12;
#X obj 125 389 loadbang;
#X obj 213 577 s bela_setDigital;
#X msg 103 450 in 12;
#X obj 468 364 delay 100;
#X msg 145 453 in 13;
#X msg 190 454 in 14;
#X msg 235 453 in 15;
#X msg 276 451 in 16;
#X msg 40 420 out 20;
#X msg 326 452 in 17;
#X msg 387 457 in 18;
#X obj 523 246 metro 350;
#X obj 533 199 loadbang;
#X obj 515 291 t b b;
#X obj 33 13 r bela_digitalIn12;
#X obj 183 13 r bela_digitalIn13;
#X obj 345 15 r bela_digitalIn14;
#X obj 491 14 r bela_digitalIn15;
#X obj 628 13 r bela_digitalIn16;
#X obj 774 13 r bela_digitalIn17;
#X obj 924 13 r bela_digitalIn18;
#X text 635 101 rec;
#X text 504 90 play;
#X obj 516 425 s bela_digitalOut11;
#X msg 45 452 out 11;
#X text 942 79 reverse;
#X text 373 128 reset;
#X text 762 90 autoglitch;
#X text 43 127 permanence;
#X text 199 135 glitch;
#X obj 721 269 snapshot~;
#X obj 726 393 print a1;
#X obj 798 270 snapshot~;
#X obj 868 273 snapshot~;
#X obj 953 274 snapshot~;
#X obj 797 380 print a2;
#X obj 867 383 print a3;
#X obj 952 384 print a4;
#X obj 692 197 metro 100;
#X obj 686 163 loadbang;
#X msg 475 395 0;
#X msg 552 360 1;
#X obj 632 70 print d16;
#X text 726 426 pitch;
#X obj 43 92 print d12;
#X obj 193 92 print d13;
#X obj 355 94 print d14;
#X obj 489 70 print d15;
#X obj 777 64 print d17;
#X obj 927 64 print d18;
#X text 864 420 height;
#X text 953 418 length;
#X text 795 409 raate;
#X obj 491 38 bela_debounce 100;
#X obj 621 42 bela_debounce 100;
#X obj 782 36 bela_debounce 100;
#X obj 930 40 bela_debounce 100;
#X obj 38 42 bela_debounce 100;
#X obj 168 46 bela_debounce 100;
#X obj 329 40 bela_debounce 100;
#X obj 758 215 adc~ 3 4 5 6;
#X connect 0 0 24 0;
#X connect 0 0 2 0;
#X connect 0 0 4 0;
#X connect 0 0 5 0;
#X connect 0 0 6 0;
#X connect 0 0 7 0;
#X connect 0 0 8 0;
#X connect 0 0 9 0;
#X connect 0 0 10 0;
#X connect 2 0 1 0;
#X connect 3 0 40 0;
#X connect 4 0 1 0;
#X connect 5 0 1 0;
#X connect 6 0 1 0;
#X connect 7 0 1 0;
#X connect 8 0 1 0;
#X connect 9 0 1 0;
#X connect 10 0 1 0;
#X connect 11 0 13 0;
#X connect 12 0 11 0;
#X connect 13 0 3 0;
#X connect 13 1 41 0;
#X connect 14 0 57 0;
#X connect 15 0 58 0;
#X connect 16 0 59 0;
#X connect 17 0 53 0;
#X connect 18 0 54 0;
#X connect 19 0 55 0;
#X connect 20 0 56 0;
#X connect 24 0 1 0;
#X connect 38 0 30 0;
#X connect 38 0 32 0;
#X connect 38 0 33 0;
#X connect 38 0 34 0;
#X connect 39 0 38 0;
#X connect 40 0 23 0;
#X connect 41 0 23 0;
#X connect 53 0 47 0;
#X connect 54 0 42 0;
#X connect 55 0 48 0;
#X connect 56 0 49 0;
#X connect 57 0 44 0;
#X connect 58 0 45 0;
#X connect 59 0 46 0;
#X connect 60 0 30 0;
#X connect 60 1 32 0;
#X connect 60 2 33 0;
#X connect 60 3 34 0;
